<svg width="18" height="18" viewBox="0 0 18 18" fill="none" xmlns="http://www.w3.org/2000/svg">
<path fill-rule="evenodd" clip-rule="evenodd" d="M13.6306 6H11.9993L12.225 4.76503C12.2571 4.59422 12.2962 4.41905 12.336 4.24099C12.6174 2.98256 12.9309 1.57995 11.0089 0.555361C9.5208 -0.237917 7.22587 0.360642 6.40938 1.8923L4.64561 6L1 6C0.447715 6 0 6.44771 0 7V17C0 17.5523 0.447715 18 1 18L4.00001 18L6 18L13.6306 18C16.0437 18 18 15.3137 18 12C18 8.68629 16.0437 6 13.6306 6Z" fill="#222222"/>
</svg>
