<?xml version="1.0" encoding="utf-8"?>
<!-- Generator: Adobe Illustrator 27.5.0, SVG Export Plug-In . SVG Version: 6.00 Build 0)  -->
<svg version="1.1" xmlns="http://www.w3.org/2000/svg" xmlns:xlink="http://www.w3.org/1999/xlink" x="0px" y="0px"
	 viewBox="0 0 750 500" style="enable-background:new 0 0 750 500;" xml:space="preserve">
<g id="BACKGROUND">
	
		<linearGradient id="XMLID_00000121271373556595513200000014207614191575519391_" gradientUnits="userSpaceOnUse" x1="375.004" y1="498.9" x2="375.004" y2="-9.094947e-13">
		<stop  offset="0.36" style="stop-color:#FFFFDB"/>
		<stop  offset="0.4957" style="stop-color:#FBFEDB"/>
		<stop  offset="0.6436" style="stop-color:#EDFADD"/>
		<stop  offset="0.7971" style="stop-color:#D8F4DF"/>
		<stop  offset="0.9536" style="stop-color:#B9EBE2"/>
		<stop  offset="1" style="stop-color:#AFE8E3"/>
	</linearGradient>
	
		<rect id="XMLID_100_" x="0.004" style="fill:url(#XMLID_00000121271373556595513200000014207614191575519391_);" width="750" height="498.9"/>
</g>
<g id="OBJECTS">
	<g>
		<path id="XMLID_238_" style="fill:#FBFBFB;" d="M341.158,170.003l199.383-0.692c0,0-129.86,4.792-142.225,3.549
			C385.952,171.616,357.03,162.068,341.158,170.003z"/>
		<g id="XMLID_234_">
			
				<radialGradient id="XMLID_00000121268170357990507480000015301206886036275101_" cx="602.6534" cy="134.0602" r="62.7262" gradientUnits="userSpaceOnUse">
				<stop  offset="0.0022" style="stop-color:#FFFFFF"/>
				<stop  offset="1" style="stop-color:#FFFFFF;stop-opacity:0"/>
			</radialGradient>
			
				<circle id="XMLID_236_" style="fill:url(#XMLID_00000121268170357990507480000015301206886036275101_);" cx="602.653" cy="134.06" r="71.957"/>
			
				<ellipse id="XMLID_235_" transform="matrix(0.7071 -0.7071 0.7071 0.7071 81.7181 465.4057)" style="fill:#FFFFFF;" cx="602.653" cy="134.06" rx="36.159" ry="36.159"/>
		</g>
		
			<linearGradient id="XMLID_00000050660549962903728890000014013268129177582522_" gradientUnits="userSpaceOnUse" x1="371.5019" y1="77.3769" x2="371.5019" y2="100.2373">
			<stop  offset="0.0482" style="stop-color:#203648"/>
			<stop  offset="0.4034" style="stop-color:#294450"/>
			<stop  offset="0.9946" style="stop-color:#3D6461"/>
		</linearGradient>
		<path id="XMLID_573_" style="fill:url(#XMLID_00000050660549962903728890000014013268129177582522_);" d="M372.429,87.46
			l-13.391-10.083c0,0,3.164,11.269,9.912,13.811c0,0-4.875,3.498-6.27,3.269s-3.02,0.937-3.02,0.937l5.353,2.313l5.104-4.894
			c0,0,8.622,8.583,13.85,7.292l-9.788-10.208l1.625-1.166l2.208-0.354c0,0-2.332-3.25-3.957-2.084
			C372.429,87.46,372.429,87.46,372.429,87.46z"/>
		<path id="XMLID_99_" style="fill:#FBFBFB;" d="M252.653,61.804c-2.956-3.456-7.628-8.254-14.273-12.661
			c-20.651-13.694-42.802-11.961-51.33-11.293c-25.454,1.992-43.303,14.12-50.876,19.998c-1.68-1.618-5.5-4.814-11.155-5.669
			c-11.985-1.813-20.414,8.666-20.804,9.166c-2.225,0.059-4.454,0.121-6.686,0.184c-5.008,0.143-7.512,0.214-7.512,0.223
			C90.016,61.864,160.779,61.858,252.653,61.804z"/>
		<path id="XMLID_250_" style="fill:#FBFBFB;" d="M703.515,171.295c-2.907-4.064-7.595-9.661-14.611-14.663
			c-19.506-13.908-41.417-12.069-51.33-11.293c-25.454,1.992-43.303,14.12-50.876,19.998c-1.68-1.618-5.5-4.814-11.155-5.669
			c-11.985-1.813-20.414,8.666-20.804,9.166c-2.225,0.059-4.454,0.12-6.686,0.184c-5.008,0.143-7.512,0.212-7.512,0.223
			C540.538,169.439,614.539,170.313,703.515,171.295z"/>
	</g>
	<g>
		
			<linearGradient id="XMLID_00000119081707621188792390000011485662368874242983_" gradientUnits="userSpaceOnUse" x1="174.5842" y1="229.8492" x2="174.5842" y2="268.4932">
			<stop  offset="0.0267" style="stop-color:#79C3A3"/>
			<stop  offset="1" style="stop-color:#4C8080"/>
		</linearGradient>
		<path id="XMLID_240_" style="fill:url(#XMLID_00000119081707621188792390000011485662368874242983_);" d="M0.004,250.423
			c0,0,37.296-14.189,58.171-5.049c20.875,9.14,50.615-0.651,65.329-10.578c14.714-9.928,61.05-3.673,88.852,7.814
			c33.918,14.014,41.147-5.385,67.01-2.473c30.404,3.422,54.254,14.736,69.802,23.899C232.779,265.521,116.389,267.007,0,268.493
			L0.004,250.423z"/>
		
			<linearGradient id="XMLID_00000000189146352110847870000015099723537829757869_" gradientUnits="userSpaceOnUse" x1="1839.6801" y1="264.0862" x2="1839.6801" y2="201.3435" gradientTransform="matrix(-1 0 0 1 2366.7961 0)">
			<stop  offset="0.0482" style="stop-color:#203648"/>
			<stop  offset="0.4034" style="stop-color:#294450"/>
			<stop  offset="0.9946" style="stop-color:#3D6461"/>
		</linearGradient>
		<path id="XMLID_97_" style="fill:url(#XMLID_00000000189146352110847870000015099723537829757869_);" d="M304.228,264.086
			c148.592-0.232,297.184-0.464,445.776-0.697v-53.367c0,0-10.945,1.84-43.105,10.649c0,0,0,0-0.006,0
			c-0.012,0.006-0.034,0.013-0.069,0.019c-2.453,0.671-5.026,1.386-7.731,2.14c-26.024,7.263-62.672-10.406-94.266-18.111
			c-3.843-0.939-7.611-1.725-11.276-2.306c-3.442-0.549-6.793-0.907-10.03-1.022h-0.006c-6.604-0.255-12.729,0.486-18.178,2.651
			c-30.227,12.003-58.978,38.521-89.108,43.025c-4.157,0.632-8.337,0.837-12.552,0.524c-22.319-1.644-29.368-5.104-38.325-4.814
			c-9.657,0.313-16.595,3.597-19.761,4.955C394.275,252.586,367.548,258.414,304.228,264.086z"/>
		
			<linearGradient id="XMLID_00000013161683304339916680000015894838952160394395_" gradientUnits="userSpaceOnUse" x1="355.6622" y1="425.1438" x2="395.1378" y2="201.2661">
			<stop  offset="0.371" style="stop-color:#F6FFF0"/>
			<stop  offset="0.5607" style="stop-color:#EDFFEB"/>
			<stop  offset="0.8642" style="stop-color:#D6FFDF"/>
			<stop  offset="0.8871" style="stop-color:#D4FFDE"/>
		</linearGradient>
		<path id="XMLID_233_" style="fill:url(#XMLID_00000013161683304339916680000015894838952160394395_);" d="M0,268.493
			c107.044-1.551,214.088-3.103,321.132-4.655h428.872v98.592H0C0,331.118,0,299.806,0,268.493z"/>
		
			<linearGradient id="XMLID_00000046300974825010165840000014681776877787654291_" gradientUnits="userSpaceOnUse" x1="1845.8751" y1="1259.1235" x2="1833.1858" y2="1351.1948" gradientTransform="matrix(-1 0 0 -1 2366.7961 1574.5544)">
			<stop  offset="0" style="stop-color:#63A9A1"/>
			<stop  offset="1" style="stop-color:#1B6558"/>
		</linearGradient>
		
			<path id="XMLID_72_" style="opacity:0.3;fill-rule:evenodd;clip-rule:evenodd;fill:url(#XMLID_00000046300974825010165840000014681776877787654291_);" d="
			M304.168,264.085c148.612-0.232,297.224-0.463,445.836-0.695c0,4.641,0,9.283,0,13.924c0,0-10.945-0.476-43.105-2.755
			c0,0,0,0-0.006,0c-0.011-0.002-0.034-0.003-0.068-0.005c-2.453-0.173-5.026-0.359-7.731-0.554
			c-26.024-1.879-62.672,2.693-94.266,4.686c-3.843,0.243-7.611,0.446-11.276,0.597c-3.442,0.142-6.793,0.235-10.03,0.264h-0.006
			c-6.605,0.066-12.729-0.126-18.179-0.686c-30.227-3.105-58.978-9.966-89.108-11.132c-4.157-0.164-8.337-0.217-12.552-0.135
			c-22.319,0.425-29.368,1.321-38.325,1.246c-2.651-0.022-5.051-0.103-7.235-0.216c-5.532-0.288-9.823-0.75-11.672-0.965
			c-0.469-0.054-0.815-0.096-0.854-0.101C401.75,267.093,372.928,266.043,304.168,264.085z"/>
	</g>
	<g>
		<g>
			<g id="XMLID_243_">
				<line id="XMLID_530_" style="fill:#FBFBFB;" x1="0" y1="307.646" x2="750" y2="327.807"/>
				
					<rect id="XMLID_529_" x="370.001" y="-57.409" transform="matrix(0.0269 -0.9996 0.9996 0.0269 47.3116 684.0538)" style="fill:#FBFBFB;" width="10" height="750.271"/>
			</g>
			
				<linearGradient id="XMLID_00000051364385059368231240000015076463443994726827_" gradientUnits="userSpaceOnUse" x1="343.528" y1="450.5084" x2="401.4318" y2="234.4083">
				<stop  offset="0.0267" style="stop-color:#79C3A3"/>
				<stop  offset="0.1998" style="stop-color:#7DC4A3"/>
				<stop  offset="0.3885" style="stop-color:#8BC9A5"/>
				<stop  offset="0.5845" style="stop-color:#A0D0A7"/>
				<stop  offset="0.7855" style="stop-color:#BFDAA9"/>
				<stop  offset="0.9886" style="stop-color:#E6E7AD"/>
				<stop  offset="1" style="stop-color:#E8E8AD"/>
			</linearGradient>
			<path id="XMLID_5_" style="fill:url(#XMLID_00000051364385059368231240000015076463443994726827_);" d="M750,358.46H0v-50.814
				c250,6.72,500,13.441,750,20.161C750,338.025,750,348.242,750,358.46z"/>
			<g id="XMLID_247_" style="opacity:0.19;">
				<g id="XMLID_487_">
					
						<linearGradient id="XMLID_00000029743953272838144930000003448232570510204561_" gradientUnits="userSpaceOnUse" x1="1865.9279" y1="374.5624" x2="1417.4558" y2="349.8195" gradientTransform="matrix(-0.9997 -0.0161 -0.0253 0.5067 1772.0096 180.7415)">
						<stop  offset="0" style="stop-color:#D05749"/>
						<stop  offset="0.1499" style="stop-color:#B74C40"/>
						<stop  offset="0.3844" style="stop-color:#883930"/>
						<stop  offset="0.712" style="stop-color:#411B17"/>
						<stop  offset="0.9944" style="stop-color:#000000"/>
					</linearGradient>
					<path id="XMLID_1370_" style="fill:url(#XMLID_00000029743953272838144930000003448232570510204561_);" d="M265.723,335.004
						c1.923,0.135,3.789,0.306,5.557,0.508c1.401,0.16,3.286,0.342,3.613,0.685c0.273,0.286-0.445,0.587-1.577,0.762
						c-1.395,0.215-3.238,0.26-4.992,0.272c-0.518,0.034-1.041,0.066-1.567,0.091c-1.752,0.086-3.54,0.053-4.93-0.198
						c-0.166-0.03-0.32-0.062-0.464-0.096c-0.038-0.004-0.076-0.006-0.114-0.01c-0.164-0.016-0.219-0.046-0.219-0.076
						c-0.272-0.078-0.491-0.162-0.661-0.25c-0.19-0.06-0.321-0.13-0.334-0.22c-0.001-0.004,0.003-0.008,0.003-0.012
						c-0.073-0.076-0.116-0.153-0.127-0.23c-0.026-0.195,0.13-0.39,0.369-0.578c0.211-0.165,0.453-0.344,0.936-0.487
						C262.276,334.85,264.081,334.889,265.723,335.004z M262.57,335.156c-0.236,0.031-0.409,0.075-0.559,0.123
						c0.015-0.002,0.031-0.004,0.046-0.006c0.031-0.009,0.068-0.016,0.123-0.022c0.031-0.003,0.064-0.005,0.096-0.008
						c0.458-0.053,0.996-0.082,1.548-0.087c0.342-0.009,0.686-0.014,1.03-0.012C264.111,335.1,263.241,335.067,262.57,335.156z"/>
					
						<linearGradient id="XMLID_00000159440122851174434880000001398577955422067629_" gradientUnits="userSpaceOnUse" x1="1867.0184" y1="354.7781" x2="1418.5479" y2="330.0352" gradientTransform="matrix(-0.9997 -0.0161 -0.0253 0.5067 1772.0096 180.7415)">
						<stop  offset="0" style="stop-color:#D05749"/>
						<stop  offset="0.1499" style="stop-color:#B74C40"/>
						<stop  offset="0.3844" style="stop-color:#883930"/>
						<stop  offset="0.712" style="stop-color:#411B17"/>
						<stop  offset="0.9944" style="stop-color:#000000"/>
					</linearGradient>
					<path id="XMLID_1369_" style="fill:url(#XMLID_00000159440122851174434880000001398577955422067629_);" d="M186.311,326.574
						c0.288,0.034,0.569,0.07,0.846,0.107c0.544,0.073,1.107,0.149,1.58,0.239c0.223,0.043,0.429,0.094,0.569,0.15
						c0.077,0.017,0.115,0.041,0.119,0.063c0.048,0.034,0.076,0.068,0.058,0.103c-0.06,0.118-0.476,0.21-1.04,0.249
						c-0.337,0.023-0.68,0.016-0.987-0.01c-0.001,0-0.002,0-0.003,0.001c-0.229,0.025-0.524,0.007-0.66-0.037
						c-0.007-0.002-0.012-0.005-0.019-0.007c-0.241,0.004-0.486,0.001-0.73-0.018c-0.587-0.048-0.986-0.135-1.217-0.249
						c-0.229-0.113-0.255-0.241-0.254-0.361c0-0.107,0.158-0.234,0.74-0.27C185.662,326.512,186.008,326.538,186.311,326.574z"/>
					
						<linearGradient id="XMLID_00000149351893458276294070000008767630604103512724_" gradientUnits="userSpaceOnUse" x1="1866.6686" y1="361.1396" x2="1418.1968" y2="336.3966" gradientTransform="matrix(-0.9997 -0.0161 -0.0253 0.5067 1772.0096 180.7415)">
						<stop  offset="0" style="stop-color:#D05749"/>
						<stop  offset="0.1499" style="stop-color:#B74C40"/>
						<stop  offset="0.3844" style="stop-color:#883930"/>
						<stop  offset="0.712" style="stop-color:#411B17"/>
						<stop  offset="0.9944" style="stop-color:#000000"/>
					</linearGradient>
					<path id="XMLID_1368_" style="fill:url(#XMLID_00000149351893458276294070000008767630604103512724_);" d="M198.296,329.57
						c0.806,0.06,1.642,0.184,1.794,0.359c0.044,0.051,0.004,0.102-0.089,0.148c0.136,0.044,0.107,0.104-0.152,0.128
						c-0.174,0.238-0.988,0.444-2.239,0.514c-1.671,0.093-3.15-0.094-4.118-0.354c-0.472-0.126-0.904-0.281-0.84-0.441
						c0.059-0.15,0.558-0.267,1.241-0.327c0.641-0.056,1.35-0.073,2.052-0.081C196.723,329.507,197.553,329.515,198.296,329.57z"/>
					
						<linearGradient id="XMLID_00000121266077490221012800000008973506513475385789_" gradientUnits="userSpaceOnUse" x1="1866.8135" y1="358.5042" x2="1418.3418" y2="333.7612" gradientTransform="matrix(-0.9997 -0.0161 -0.0253 0.5067 1772.0096 180.7415)">
						<stop  offset="0" style="stop-color:#D05749"/>
						<stop  offset="0.1499" style="stop-color:#B74C40"/>
						<stop  offset="0.3844" style="stop-color:#883930"/>
						<stop  offset="0.712" style="stop-color:#411B17"/>
						<stop  offset="0.9944" style="stop-color:#000000"/>
					</linearGradient>
					<path id="XMLID_1365_" style="fill:url(#XMLID_00000121266077490221012800000008973506513475385789_);" d="M175.138,329.452
						c-0.075-0.277-0.327-0.547-0.755-0.81c-0.2,0.082-0.53,0.084-0.841,0.134c-0.299,0.048-0.283,0.07-0.407,0.133
						c-0.115,0.059-0.242,0.086-0.195,0.159c0.045,0.07,0.26,0.122,0.353,0.183c0.105,0.069,0.06,0.077,0.337,0.132
						c0.25,0.05,0.398,0.076,0.781,0.067c0.372-0.009,1.446-0.052,1.275-0.174L175.138,329.452z"/>
					
						<linearGradient id="XMLID_00000062193844965728127870000007327089816855094202_" gradientUnits="userSpaceOnUse" x1="1865.3964" y1="384.2746" x2="1416.9172" y2="359.5313" gradientTransform="matrix(-0.9997 -0.0161 -0.0253 0.5067 1772.0096 180.7415)">
						<stop  offset="0" style="stop-color:#D05749"/>
						<stop  offset="0.1499" style="stop-color:#B74C40"/>
						<stop  offset="0.3844" style="stop-color:#883930"/>
						<stop  offset="0.712" style="stop-color:#411B17"/>
						<stop  offset="0.9944" style="stop-color:#000000"/>
					</linearGradient>
					<path id="XMLID_1353_" style="fill:url(#XMLID_00000062193844965728127870000007327089816855094202_);" d="M188.283,342.386
						c-0.075-0.277-0.327-0.547-0.755-0.81c-0.199,0.082-0.53,0.084-0.841,0.134c-0.299,0.048-0.283,0.07-0.407,0.133
						c-0.115,0.059-0.243,0.086-0.195,0.159c0.045,0.07,0.26,0.122,0.353,0.183c0.105,0.069,0.061,0.076,0.337,0.132
						c0.25,0.05,0.398,0.076,0.781,0.067c0.372-0.009,1.446-0.052,1.275-0.173L188.283,342.386z"/>
					
						<linearGradient id="XMLID_00000165929667474737047790000006362200068299466386_" gradientUnits="userSpaceOnUse" x1="1865.4889" y1="382.519" x2="1417.0164" y2="357.7759" gradientTransform="matrix(-0.9997 -0.0161 -0.0253 0.5067 1772.0096 180.7415)">
						<stop  offset="0" style="stop-color:#D05749"/>
						<stop  offset="0.1499" style="stop-color:#B74C40"/>
						<stop  offset="0.3844" style="stop-color:#883930"/>
						<stop  offset="0.712" style="stop-color:#411B17"/>
						<stop  offset="0.9944" style="stop-color:#000000"/>
					</linearGradient>
					<path id="XMLID_1351_" style="fill:url(#XMLID_00000165929667474737047790000006362200068299466386_);" d="M225.172,341.063
						c-1.997-0.077-3.974-0.171-5.931-0.281c0.296,0.003,0.377-0.13,0.589-0.18c0.219-0.052,0.401-0.108,0.639-0.157
						c0.449-0.091,0.873-0.18,1.368-0.262c1.279-0.21,2.709-0.032,3.932,0.088c1.201,0.118,2.324,0.347,2.148,0.625
						c-0.08,0.127-0.753,0.194-1.284,0.243c-0.304,0.028-0.576,0.062-0.909,0.068c-0.403,0.008-0.694,0.033-1.101,0.03
						L225.172,341.063z"/>
					
						<linearGradient id="XMLID_00000148636513953686085110000004763607967794853253_" gradientUnits="userSpaceOnUse" x1="1866.7544" y1="359.5799" x2="1418.2819" y2="334.8369" gradientTransform="matrix(-0.9997 -0.0161 -0.0253 0.5067 1772.0096 180.7415)">
						<stop  offset="0" style="stop-color:#D05749"/>
						<stop  offset="0.1499" style="stop-color:#B74C40"/>
						<stop  offset="0.3844" style="stop-color:#883930"/>
						<stop  offset="0.712" style="stop-color:#411B17"/>
						<stop  offset="0.9944" style="stop-color:#000000"/>
					</linearGradient>
					<path id="XMLID_1349_" style="fill:url(#XMLID_00000148636513953686085110000004763607967794853253_);" d="M184.641,329.891
						c-1.997-0.077-3.974-0.171-5.931-0.281c0.296,0.003,0.377-0.13,0.589-0.18c0.219-0.052,0.401-0.108,0.639-0.157
						c0.449-0.091,0.872-0.18,1.368-0.261c1.279-0.21,2.709-0.032,3.932,0.088c1.202,0.118,2.324,0.347,2.148,0.625
						c-0.08,0.127-0.753,0.194-1.284,0.243c-0.304,0.029-0.576,0.062-0.909,0.068c-0.403,0.008-0.694,0.033-1.101,0.03
						L184.641,329.891z"/>
					
						<linearGradient id="XMLID_00000165938694280612038500000011180435464576566449_" gradientUnits="userSpaceOnUse" x1="1866.438" y1="365.33" x2="1417.9647" y2="340.587" gradientTransform="matrix(-0.9997 -0.0161 -0.0253 0.5067 1772.0096 180.7415)">
						<stop  offset="0" style="stop-color:#D05749"/>
						<stop  offset="0.1499" style="stop-color:#B74C40"/>
						<stop  offset="0.3844" style="stop-color:#883930"/>
						<stop  offset="0.712" style="stop-color:#411B17"/>
						<stop  offset="0.9944" style="stop-color:#000000"/>
					</linearGradient>
					<path id="XMLID_1347_" style="fill:url(#XMLID_00000165938694280612038500000011180435464576566449_);" d="M233.173,332.237
						c-1.997-0.077-3.974-0.171-5.931-0.281c0.296,0.003,0.377-0.13,0.589-0.18c0.219-0.052,0.401-0.108,0.639-0.157
						c0.449-0.091,0.873-0.18,1.368-0.261c1.279-0.21,2.709-0.032,3.931,0.088c1.201,0.118,2.324,0.347,2.148,0.625
						c-0.08,0.127-0.753,0.194-1.284,0.243c-0.304,0.028-0.576,0.062-0.909,0.068c-0.403,0.008-0.694,0.033-1.101,0.03
						L233.173,332.237z"/>
					
						<linearGradient id="XMLID_00000056401173660398571510000012008126300327208583_" gradientUnits="userSpaceOnUse" x1="1865.271" y1="386.4609" x2="1416.7991" y2="361.718" gradientTransform="matrix(-0.9997 -0.0161 -0.0253 0.5067 1772.0096 180.7415)">
						<stop  offset="0" style="stop-color:#D05749"/>
						<stop  offset="0.1499" style="stop-color:#B74C40"/>
						<stop  offset="0.3844" style="stop-color:#883930"/>
						<stop  offset="0.712" style="stop-color:#411B17"/>
						<stop  offset="0.9944" style="stop-color:#000000"/>
					</linearGradient>
					<path id="XMLID_1345_" style="fill:url(#XMLID_00000056401173660398571510000012008126300327208583_);" d="M258.9,341.776
						c0.947,0.289,0.86,0.824-0.355,1.084c-0.97,0.207-2.061,0.117-2.938-0.043c-0.09-0.006-0.187-0.01-0.272-0.018
						c-0.258-0.026-0.513-0.067-0.651-0.119c-0.199-0.032-0.373-0.067-0.495-0.107c-0.527-0.172-0.342-0.335,0.072-0.509
						c0.388-0.163,1.148-0.399,2.063-0.472C257.34,341.51,258.331,341.603,258.9,341.776z"/>
					
						<linearGradient id="XMLID_00000055664728180438180620000016320910450946113941_" gradientUnits="userSpaceOnUse" x1="1865.2943" y1="386.1252" x2="1416.8154" y2="361.3818" gradientTransform="matrix(-0.9997 -0.0161 -0.0253 0.5067 1772.0096 180.7415)">
						<stop  offset="0" style="stop-color:#D05749"/>
						<stop  offset="0.1499" style="stop-color:#B74C40"/>
						<stop  offset="0.3844" style="stop-color:#883930"/>
						<stop  offset="0.712" style="stop-color:#411B17"/>
						<stop  offset="0.9944" style="stop-color:#000000"/>
					</linearGradient>
					<path id="XMLID_1342_" style="fill:url(#XMLID_00000055664728180438180620000016320910450946113941_);" d="M191.475,343.033
						c-0.296,0.024-0.6,0.033-0.914,0.027c-0.206-0.065-0.552-0.093-0.573-0.184c-0.018-0.08,0.352-0.203,0.757-0.233
						c0.471-0.035,0.836,0.061,1.076,0.128c0.313,0.086,0.566,0.157,0.156,0.257c-0.396,0.097-0.809,0.109-1.416,0.108
						L191.475,343.033z"/>
					
						<linearGradient id="XMLID_00000087377177926865189790000010008931045435165584_" gradientUnits="userSpaceOnUse" x1="1865.348" y1="385.1578" x2="1416.8688" y2="360.4145" gradientTransform="matrix(-0.9997 -0.0161 -0.0253 0.5067 1772.0096 180.7415)">
						<stop  offset="0" style="stop-color:#D05749"/>
						<stop  offset="0.1499" style="stop-color:#B74C40"/>
						<stop  offset="0.3844" style="stop-color:#883930"/>
						<stop  offset="0.712" style="stop-color:#411B17"/>
						<stop  offset="0.9944" style="stop-color:#000000"/>
					</linearGradient>
					<path id="XMLID_1310_" style="fill:url(#XMLID_00000087377177926865189790000010008931045435165584_);" d="M205.908,342.371
						c-0.296,0.024-0.6,0.033-0.914,0.027c-0.206-0.065-0.552-0.093-0.573-0.184c-0.019-0.08,0.352-0.203,0.757-0.233
						c0.471-0.035,0.836,0.062,1.076,0.128c0.313,0.087,0.566,0.157,0.156,0.257c-0.396,0.097-0.809,0.109-1.416,0.108
						L205.908,342.371z"/>
					
						<linearGradient id="XMLID_00000022551714766638836980000011844784523850377622_" gradientUnits="userSpaceOnUse" x1="1865.4622" y1="383.0331" x2="1416.9877" y2="358.29" gradientTransform="matrix(-0.9997 -0.0161 -0.0253 0.5067 1772.0096 180.7415)">
						<stop  offset="0" style="stop-color:#D05749"/>
						<stop  offset="0.1499" style="stop-color:#B74C40"/>
						<stop  offset="0.3844" style="stop-color:#883930"/>
						<stop  offset="0.712" style="stop-color:#411B17"/>
						<stop  offset="0.9944" style="stop-color:#000000"/>
					</linearGradient>
					<path id="XMLID_1308_" style="fill:url(#XMLID_00000022551714766638836980000011844784523850377622_);" d="M254.33,340.12
						c0.288,0.034,0.569,0.07,0.846,0.107c0.544,0.073,1.107,0.149,1.58,0.239c0.223,0.043,0.428,0.094,0.569,0.15
						c0.076,0.017,0.115,0.041,0.119,0.063c0.048,0.034,0.076,0.068,0.058,0.103c-0.06,0.118-0.476,0.21-1.04,0.249
						c-0.337,0.023-0.68,0.016-0.987-0.01c-0.001,0-0.002,0-0.003,0.001c-0.229,0.025-0.523,0.008-0.66-0.037
						c-0.007-0.002-0.012-0.005-0.019-0.007c-0.241,0.004-0.486,0.001-0.73-0.018c-0.587-0.048-0.986-0.135-1.217-0.249
						c-0.229-0.113-0.255-0.241-0.254-0.361c0.001-0.107,0.159-0.234,0.74-0.27C253.681,340.058,254.027,340.085,254.33,340.12z"/>
					
						<linearGradient id="XMLID_00000019680256390160365870000001652650863356722361_" gradientUnits="userSpaceOnUse" x1="1865.4756" y1="382.8325" x2="1416.998" y2="358.0892" gradientTransform="matrix(-0.9997 -0.0161 -0.0253 0.5067 1772.0096 180.7415)">
						<stop  offset="0" style="stop-color:#D05749"/>
						<stop  offset="0.1499" style="stop-color:#B74C40"/>
						<stop  offset="0.3844" style="stop-color:#883930"/>
						<stop  offset="0.712" style="stop-color:#411B17"/>
						<stop  offset="0.9944" style="stop-color:#000000"/>
					</linearGradient>
					<path id="XMLID_1306_" style="fill:url(#XMLID_00000019680256390160365870000001652650863356722361_);" d="M218.345,340.444
						c0.287,0.034,0.569,0.07,0.845,0.107c0.544,0.073,1.106,0.149,1.58,0.239c0.223,0.042,0.428,0.094,0.569,0.149
						c0.076,0.017,0.114,0.041,0.119,0.063c0.048,0.034,0.076,0.068,0.058,0.103c-0.06,0.118-0.476,0.21-1.04,0.249
						c-0.338,0.023-0.68,0.016-0.987-0.01c-0.001,0-0.002,0-0.003,0.001c-0.229,0.025-0.523,0.007-0.66-0.037
						c-0.007-0.002-0.012-0.005-0.019-0.007c-0.241,0.004-0.486,0.001-0.73-0.018c-0.587-0.047-0.986-0.135-1.217-0.249
						c-0.229-0.113-0.255-0.241-0.254-0.361c0.001-0.107,0.159-0.234,0.74-0.27C217.695,340.382,218.041,340.409,218.345,340.444z"
						/>
					
						<linearGradient id="XMLID_00000102536094559253922590000017944529739930839952_" gradientUnits="userSpaceOnUse" x1="1865.6384" y1="379.7857" x2="1417.1677" y2="355.0428" gradientTransform="matrix(-0.9997 -0.0161 -0.0253 0.5067 1772.0096 180.7415)">
						<stop  offset="0" style="stop-color:#D05749"/>
						<stop  offset="0.1499" style="stop-color:#B74C40"/>
						<stop  offset="0.3844" style="stop-color:#883930"/>
						<stop  offset="0.712" style="stop-color:#411B17"/>
						<stop  offset="0.9944" style="stop-color:#000000"/>
					</linearGradient>
					<path id="XMLID_1305_" style="fill:url(#XMLID_00000102536094559253922590000017944529739930839952_);" d="M251.031,338.416
						c0.806,0.06,1.642,0.184,1.795,0.359c0.044,0.051,0.004,0.102-0.089,0.148c0.136,0.044,0.107,0.104-0.152,0.128
						c-0.174,0.238-0.988,0.444-2.239,0.514c-1.671,0.093-3.15-0.094-4.118-0.354c-0.472-0.127-0.904-0.282-0.84-0.441
						c0.059-0.15,0.558-0.267,1.241-0.327c0.641-0.057,1.351-0.073,2.052-0.081C249.458,338.354,250.288,338.361,251.031,338.416z"
						/>
					
						<linearGradient id="XMLID_00000043459582557695260210000016105806634553739688_" gradientUnits="userSpaceOnUse" x1="1866.1" y1="371.4664" x2="1417.6263" y2="346.7234" gradientTransform="matrix(-0.9997 -0.0161 -0.0253 0.5067 1772.0096 180.7415)">
						<stop  offset="0" style="stop-color:#D05749"/>
						<stop  offset="0.1499" style="stop-color:#B74C40"/>
						<stop  offset="0.3844" style="stop-color:#883930"/>
						<stop  offset="0.712" style="stop-color:#411B17"/>
						<stop  offset="0.9944" style="stop-color:#000000"/>
					</linearGradient>
					<path id="XMLID_1297_" style="fill:url(#XMLID_00000043459582557695260210000016105806634553739688_);" d="M190.623,334.906
						c0.806,0.06,1.642,0.184,1.795,0.359c0.044,0.051,0.004,0.102-0.089,0.148c0.136,0.044,0.107,0.104-0.152,0.128
						c-0.174,0.238-0.988,0.444-2.239,0.514c-1.671,0.094-3.15-0.094-4.118-0.354c-0.472-0.126-0.904-0.281-0.84-0.441
						c0.059-0.15,0.558-0.267,1.241-0.327c0.641-0.057,1.35-0.073,2.052-0.081C189.05,334.844,189.88,334.851,190.623,334.906z"/>
					
						<linearGradient id="XMLID_00000123400737150226647130000014127386915352254395_" gradientUnits="userSpaceOnUse" x1="1865.8243" y1="376.4418" x2="1417.3518" y2="351.6988" gradientTransform="matrix(-0.9997 -0.0161 -0.0253 0.5067 1772.0096 180.7415)">
						<stop  offset="0" style="stop-color:#D05749"/>
						<stop  offset="0.1499" style="stop-color:#B74C40"/>
						<stop  offset="0.3844" style="stop-color:#883930"/>
						<stop  offset="0.712" style="stop-color:#411B17"/>
						<stop  offset="0.9944" style="stop-color:#000000"/>
					</linearGradient>
					<path id="XMLID_1295_" style="fill:url(#XMLID_00000123400737150226647130000014127386915352254395_);" d="M210.539,337.197
						c0.806,0.06,1.642,0.184,1.794,0.359c0.044,0.051,0.004,0.102-0.089,0.148c0.136,0.044,0.107,0.104-0.152,0.128
						c-0.174,0.238-0.988,0.444-2.239,0.514c-1.671,0.093-3.15-0.094-4.118-0.354c-0.472-0.127-0.904-0.281-0.84-0.441
						c0.059-0.15,0.558-0.267,1.241-0.327c0.642-0.057,1.351-0.073,2.052-0.081C208.966,337.135,209.796,337.142,210.539,337.197z"
						/>
					
						<linearGradient id="XMLID_00000181791806221289000330000009236165783838039457_" gradientUnits="userSpaceOnUse" x1="1866.5667" y1="363.0056" x2="1418.0918" y2="338.2625" gradientTransform="matrix(-0.9997 -0.0161 -0.0253 0.5067 1772.0096 180.7415)">
						<stop  offset="0" style="stop-color:#D05749"/>
						<stop  offset="0.1499" style="stop-color:#B74C40"/>
						<stop  offset="0.3844" style="stop-color:#883930"/>
						<stop  offset="0.712" style="stop-color:#411B17"/>
						<stop  offset="0.9944" style="stop-color:#000000"/>
					</linearGradient>
					<path id="XMLID_1293_" style="fill:url(#XMLID_00000181791806221289000330000009236165783838039457_);" d="M172.891,330.818
						c0.806,0.06,1.642,0.184,1.795,0.359c0.044,0.051,0.004,0.102-0.089,0.148c0.136,0.044,0.107,0.104-0.152,0.128
						c-0.174,0.238-0.988,0.444-2.239,0.514c-1.671,0.094-3.15-0.094-4.118-0.354c-0.472-0.126-0.904-0.281-0.84-0.441
						c0.059-0.15,0.558-0.267,1.241-0.327c0.642-0.057,1.351-0.073,2.052-0.081C171.318,330.756,172.147,330.763,172.891,330.818z"
						/>
					
						<linearGradient id="XMLID_00000040546949331531695320000006874122019469246878_" gradientUnits="userSpaceOnUse" x1="1865.4884" y1="382.5318" x2="1417.0151" y2="357.7887" gradientTransform="matrix(-0.9997 -0.0161 -0.0253 0.5067 1772.0096 180.7415)">
						<stop  offset="0" style="stop-color:#D05749"/>
						<stop  offset="0.1499" style="stop-color:#B74C40"/>
						<stop  offset="0.3844" style="stop-color:#883930"/>
						<stop  offset="0.712" style="stop-color:#411B17"/>
						<stop  offset="0.9944" style="stop-color:#000000"/>
					</linearGradient>
					<path id="XMLID_1292_" style="fill:url(#XMLID_00000040546949331531695320000006874122019469246878_);" d="M172.847,340.737
						c0.806,0.06,1.642,0.184,1.795,0.359c0.044,0.051,0.004,0.102-0.089,0.148c0.136,0.044,0.107,0.104-0.152,0.128
						c-0.174,0.238-0.988,0.444-2.239,0.514c-1.671,0.094-3.15-0.094-4.118-0.354c-0.472-0.126-0.904-0.281-0.84-0.441
						c0.059-0.15,0.558-0.267,1.241-0.327c0.641-0.056,1.351-0.073,2.052-0.081C171.275,340.675,172.104,340.682,172.847,340.737z"
						/>
					
						<linearGradient id="XMLID_00000175302949812090586580000003268304304617634457_" gradientUnits="userSpaceOnUse" x1="1866.1571" y1="370.4254" x2="1417.6831" y2="345.6823" gradientTransform="matrix(-0.9997 -0.0161 -0.0253 0.5067 1772.0096 180.7415)">
						<stop  offset="0" style="stop-color:#D05749"/>
						<stop  offset="0.1499" style="stop-color:#B74C40"/>
						<stop  offset="0.3844" style="stop-color:#883930"/>
						<stop  offset="0.712" style="stop-color:#411B17"/>
						<stop  offset="0.9944" style="stop-color:#000000"/>
					</linearGradient>
					<path id="XMLID_1243_" style="fill:url(#XMLID_00000175302949812090586580000003268304304617634457_);" d="M194.596,334.661
						c0.033,0.005,0.065,0.01,0.098,0.015c0.047,0.009,0.08,0.019,0.099,0.031c0.042,0.02,0.054,0.041,0.024,0.061
						c-0.01,0.007-0.016,0.014-0.023,0.022c-0.008,0.017-0.006,0.034,0.001,0.052c0.015,0.016,0.037,0.032,0.066,0.047
						c0.041,0.017,0.086,0.034,0.143,0.049c0.074,0.018,0.125,0.038,0.125,0.062c0,0.023-0.053,0.05-0.142,0.066
						c-0.088,0.015-0.208,0.024-0.329,0.025c-0.191,0.029-0.473,0.03-0.652-0.007c-0.345-0.07-0.69-0.141-1.035-0.211
						c-0.156-0.032-0.174-0.077-0.075-0.114c0.152-0.057,0.431-0.095,0.738-0.115c0.135-0.009,0.288-0.012,0.431-0.011
						C194.259,334.635,194.421,334.645,194.596,334.661z"/>
					
						<linearGradient id="XMLID_00000083075983307710936170000001771538002341618581_" gradientUnits="userSpaceOnUse" x1="1865.3013" y1="385.8963" x2="1416.8307" y2="361.1534" gradientTransform="matrix(-0.9997 -0.0161 -0.0253 0.5067 1772.0096 180.7415)">
						<stop  offset="0" style="stop-color:#D05749"/>
						<stop  offset="0.1499" style="stop-color:#B74C40"/>
						<stop  offset="0.3844" style="stop-color:#883930"/>
						<stop  offset="0.712" style="stop-color:#411B17"/>
						<stop  offset="0.9944" style="stop-color:#000000"/>
					</linearGradient>
					<path id="XMLID_1242_" style="fill:url(#XMLID_00000083075983307710936170000001771538002341618581_);" d="M214.092,342.288
						c0.033,0.005,0.065,0.01,0.098,0.015c0.047,0.009,0.08,0.019,0.099,0.031c0.042,0.02,0.054,0.041,0.024,0.061
						c-0.01,0.007-0.016,0.014-0.023,0.022c-0.008,0.017-0.006,0.034,0.001,0.052c0.015,0.016,0.037,0.032,0.066,0.048
						c0.041,0.017,0.086,0.034,0.143,0.049c0.074,0.018,0.125,0.038,0.124,0.062c0,0.023-0.053,0.05-0.141,0.066
						c-0.088,0.015-0.209,0.024-0.33,0.025c-0.192,0.029-0.473,0.03-0.653-0.007c-0.345-0.07-0.69-0.141-1.035-0.211
						c-0.157-0.032-0.175-0.077-0.075-0.114c0.152-0.057,0.431-0.095,0.738-0.115c0.135-0.009,0.287-0.012,0.43-0.011
						C213.755,342.262,213.917,342.272,214.092,342.288z"/>
					
						<linearGradient id="XMLID_00000051372918194693106170000011933936538761937284_" gradientUnits="userSpaceOnUse" x1="1866.2493" y1="368.7361" x2="1417.7778" y2="343.9931" gradientTransform="matrix(-0.9997 -0.0161 -0.0253 0.5067 1772.0096 180.7415)">
						<stop  offset="0" style="stop-color:#D05749"/>
						<stop  offset="0.1499" style="stop-color:#B74C40"/>
						<stop  offset="0.3844" style="stop-color:#883930"/>
						<stop  offset="0.712" style="stop-color:#411B17"/>
						<stop  offset="0.9944" style="stop-color:#000000"/>
					</linearGradient>
					<path id="XMLID_1241_" style="fill:url(#XMLID_00000051372918194693106170000011933936538761937284_);" d="M82.182,335.755
						c-1.997-0.077-3.974-0.171-5.931-0.281c0.296,0.003,0.377-0.13,0.589-0.18c0.218-0.052,0.401-0.108,0.639-0.157
						c0.449-0.092,0.873-0.18,1.368-0.261c1.279-0.21,2.709-0.032,3.931,0.088c1.201,0.118,2.324,0.347,2.148,0.625
						c-0.08,0.127-0.753,0.194-1.284,0.243c-0.304,0.028-0.576,0.062-0.909,0.068c-0.403,0.008-0.694,0.033-1.101,0.03
						L82.182,335.755z"/>
					
						<linearGradient id="XMLID_00000135654970171698219120000003071769976426109844_" gradientUnits="userSpaceOnUse" x1="1866.1025" y1="371.3746" x2="1417.6338" y2="346.6318" gradientTransform="matrix(-0.9997 -0.0161 -0.0253 0.5067 1772.0096 180.7415)">
						<stop  offset="0" style="stop-color:#D05749"/>
						<stop  offset="0.1499" style="stop-color:#B74C40"/>
						<stop  offset="0.3844" style="stop-color:#883930"/>
						<stop  offset="0.712" style="stop-color:#411B17"/>
						<stop  offset="0.9944" style="stop-color:#000000"/>
					</linearGradient>
					<path id="XMLID_1240_" style="fill:url(#XMLID_00000135654970171698219120000003071769976426109844_);" d="M62.918,337.063
						c-0.296,0.024-0.6,0.033-0.914,0.027c-0.206-0.065-0.552-0.093-0.573-0.184c-0.019-0.08,0.352-0.203,0.757-0.233
						c0.471-0.035,0.836,0.061,1.076,0.128c0.313,0.086,0.566,0.157,0.156,0.257c-0.396,0.097-0.809,0.109-1.416,0.108
						L62.918,337.063z"/>
					
						<linearGradient id="XMLID_00000163755689652866258900000000549645178757591443_" gradientUnits="userSpaceOnUse" x1="1866.2306" y1="369.0493" x2="1417.7626" y2="344.3066" gradientTransform="matrix(-0.9997 -0.0161 -0.0253 0.5067 1772.0096 180.7415)">
						<stop  offset="0" style="stop-color:#D05749"/>
						<stop  offset="0.1499" style="stop-color:#B74C40"/>
						<stop  offset="0.3844" style="stop-color:#883930"/>
						<stop  offset="0.712" style="stop-color:#411B17"/>
						<stop  offset="0.9944" style="stop-color:#000000"/>
					</linearGradient>
					<path id="XMLID_1238_" style="fill:url(#XMLID_00000163755689652866258900000000549645178757591443_);" d="M75.355,335.137
						c0.288,0.034,0.569,0.07,0.846,0.107c0.544,0.073,1.106,0.149,1.58,0.239c0.223,0.043,0.429,0.094,0.57,0.15
						c0.076,0.017,0.114,0.041,0.118,0.062c0.048,0.034,0.076,0.068,0.058,0.103c-0.06,0.118-0.476,0.21-1.04,0.249
						c-0.337,0.023-0.68,0.017-0.987-0.009c-0.001,0-0.002,0-0.003,0c-0.229,0.025-0.523,0.007-0.66-0.037
						c-0.007-0.002-0.012-0.005-0.019-0.007c-0.241,0.004-0.486,0.001-0.73-0.018c-0.587-0.048-0.986-0.134-1.217-0.249
						c-0.229-0.113-0.255-0.241-0.254-0.361c0-0.107,0.158-0.234,0.74-0.27C74.706,335.074,75.051,335.101,75.355,335.137z"/>
					
						<linearGradient id="XMLID_00000145033312737453550230000006998940640349207450_" gradientUnits="userSpaceOnUse" x1="1866.5845" y1="362.6588" x2="1418.1121" y2="337.9158" gradientTransform="matrix(-0.9997 -0.0161 -0.0253 0.5067 1772.0096 180.7415)">
						<stop  offset="0" style="stop-color:#D05749"/>
						<stop  offset="0.1499" style="stop-color:#B74C40"/>
						<stop  offset="0.3844" style="stop-color:#883930"/>
						<stop  offset="0.712" style="stop-color:#411B17"/>
						<stop  offset="0.9944" style="stop-color:#000000"/>
					</linearGradient>
					<path id="XMLID_1236_" style="fill:url(#XMLID_00000145033312737453550230000006998940640349207450_);" d="M67.549,331.89
						c0.806,0.06,1.642,0.184,1.794,0.359c0.044,0.051,0.004,0.102-0.089,0.148c0.136,0.044,0.107,0.104-0.151,0.128
						c-0.174,0.238-0.988,0.444-2.239,0.514c-1.671,0.094-3.15-0.094-4.118-0.354c-0.472-0.126-0.904-0.281-0.841-0.441
						c0.059-0.15,0.558-0.266,1.241-0.327c0.642-0.057,1.351-0.073,2.052-0.081C65.976,331.827,66.806,331.835,67.549,331.89z"/>
					
						<linearGradient id="XMLID_00000141441692133321648750000018180547788829623424_" gradientUnits="userSpaceOnUse" x1="1866.0634" y1="372.1135" x2="1417.5901" y2="347.3704" gradientTransform="matrix(-0.9997 -0.0161 -0.0253 0.5067 1772.0096 180.7415)">
						<stop  offset="0" style="stop-color:#D05749"/>
						<stop  offset="0.1499" style="stop-color:#B74C40"/>
						<stop  offset="0.3844" style="stop-color:#883930"/>
						<stop  offset="0.712" style="stop-color:#411B17"/>
						<stop  offset="0.9944" style="stop-color:#000000"/>
					</linearGradient>
					<path id="XMLID_1234_" style="fill:url(#XMLID_00000141441692133321648750000018180547788829623424_);" d="M71.103,336.981
						c0.032,0.005,0.065,0.01,0.098,0.015c0.047,0.009,0.08,0.019,0.099,0.031c0.042,0.02,0.054,0.041,0.024,0.062
						c-0.01,0.007-0.016,0.014-0.023,0.021c-0.008,0.017-0.006,0.035,0.001,0.052c0.015,0.016,0.037,0.032,0.066,0.047
						c0.041,0.017,0.086,0.034,0.143,0.049c0.074,0.018,0.125,0.038,0.125,0.062c0,0.023-0.053,0.05-0.142,0.066
						c-0.088,0.015-0.208,0.024-0.329,0.025c-0.192,0.029-0.473,0.03-0.653-0.007c-0.345-0.07-0.69-0.141-1.035-0.211
						c-0.157-0.032-0.174-0.077-0.075-0.114c0.152-0.057,0.431-0.095,0.738-0.115c0.135-0.009,0.288-0.012,0.431-0.011
						C70.766,336.955,70.928,336.965,71.103,336.981z"/>
					
						<linearGradient id="XMLID_00000012462353345777608890000015450149549258645660_" gradientUnits="userSpaceOnUse" x1="1865.3878" y1="384.3738" x2="1416.9137" y2="359.6307" gradientTransform="matrix(-0.9997 -0.0161 -0.0253 0.5067 1772.0096 180.7415)">
						<stop  offset="0" style="stop-color:#D05749"/>
						<stop  offset="0.1499" style="stop-color:#B74C40"/>
						<stop  offset="0.3844" style="stop-color:#883930"/>
						<stop  offset="0.712" style="stop-color:#411B17"/>
						<stop  offset="0.9944" style="stop-color:#000000"/>
					</linearGradient>
					<path id="XMLID_1228_" style="fill:url(#XMLID_00000012462353345777608890000015450149549258645660_);" d="M249.435,341.127
						c0.323,0.097,0.324,0.23,0.013,0.326c-0.091,0.028-0.243,0.046-0.416,0.045c-0.001,0-0.001,0-0.001,0
						c-0.02,0.006-0.036,0.013-0.065,0.018c-0.196,0.034-0.487,0.034-0.682-0.003c-0.177-0.034-0.354-0.068-0.532-0.101
						c-0.124-0.024-0.169-0.061-0.124-0.092c0.023-0.016,0.064-0.029,0.124-0.041c0.06-0.011,0.131-0.019,0.213-0.023
						c0.026-0.002,0.058-0.001,0.085-0.003c0.021-0.015,0.054-0.029,0.112-0.041c0.172-0.035,0.343-0.071,0.515-0.107
						c0.103-0.021,0.259-0.029,0.405-0.024C249.237,341.085,249.35,341.101,249.435,341.127z"/>
				</g>
				<g id="XMLID_486_">
					<path id="XMLID_1223_" style="fill-rule:evenodd;clip-rule:evenodd;fill:#EFFA52;" d="M265.723,335.004
						c1.923,0.135,3.789,0.306,5.557,0.508c1.401,0.16,3.286,0.342,3.613,0.685c0.273,0.286-0.445,0.587-1.577,0.762
						c-1.395,0.215-3.238,0.26-4.992,0.272c-0.518,0.034-1.041,0.066-1.567,0.091c-1.752,0.086-3.54,0.053-4.93-0.198
						c-0.166-0.03-0.32-0.062-0.464-0.096c-0.038-0.004-0.076-0.006-0.114-0.01c-0.164-0.016-0.219-0.046-0.219-0.076
						c-0.272-0.078-0.491-0.162-0.661-0.25c-0.19-0.06-0.321-0.13-0.334-0.22c-0.001-0.004,0.003-0.008,0.003-0.012
						c-0.073-0.076-0.116-0.153-0.127-0.23c-0.026-0.195,0.13-0.39,0.369-0.578c0.211-0.165,0.453-0.344,0.936-0.487
						C262.276,334.85,264.081,334.889,265.723,335.004z M262.57,335.156c-0.236,0.031-0.409,0.075-0.559,0.123
						c0.015-0.002,0.031-0.004,0.046-0.006c0.031-0.009,0.068-0.016,0.123-0.022c0.031-0.003,0.064-0.005,0.096-0.008
						c0.458-0.053,0.996-0.082,1.548-0.087c0.342-0.009,0.686-0.014,1.03-0.012C264.111,335.1,263.241,335.067,262.57,335.156z"/>
					<path id="XMLID_1222_" style="fill-rule:evenodd;clip-rule:evenodd;fill:#EFFA52;" d="M186.311,326.574
						c0.288,0.034,0.569,0.07,0.846,0.107c0.544,0.073,1.107,0.149,1.58,0.239c0.223,0.043,0.429,0.094,0.569,0.15
						c0.077,0.017,0.115,0.041,0.119,0.063c0.048,0.034,0.076,0.068,0.058,0.103c-0.06,0.118-0.476,0.21-1.04,0.249
						c-0.337,0.023-0.68,0.016-0.987-0.01c-0.001,0-0.002,0-0.003,0.001c-0.229,0.025-0.524,0.007-0.66-0.037
						c-0.007-0.002-0.012-0.005-0.019-0.007c-0.241,0.004-0.486,0.001-0.73-0.018c-0.587-0.048-0.986-0.135-1.217-0.249
						c-0.229-0.113-0.255-0.241-0.254-0.361c0-0.107,0.158-0.234,0.74-0.27C185.662,326.512,186.008,326.538,186.311,326.574z"/>
					<path id="XMLID_1211_" style="fill-rule:evenodd;clip-rule:evenodd;fill:#EFFA52;" d="M198.296,329.57
						c0.806,0.06,1.642,0.184,1.794,0.359c0.044,0.051,0.004,0.102-0.089,0.148c0.136,0.044,0.107,0.104-0.152,0.128
						c-0.174,0.238-0.988,0.444-2.239,0.514c-1.671,0.093-3.15-0.094-4.118-0.354c-0.472-0.126-0.904-0.281-0.84-0.441
						c0.059-0.15,0.558-0.267,1.241-0.327c0.641-0.056,1.35-0.073,2.052-0.081C196.723,329.507,197.553,329.515,198.296,329.57z"/>
					<path id="XMLID_1210_" style="fill-rule:evenodd;clip-rule:evenodd;fill:#EFFA52;" d="M175.138,329.452
						c-0.075-0.277-0.327-0.547-0.755-0.81c-0.2,0.082-0.53,0.084-0.841,0.134c-0.299,0.048-0.283,0.07-0.407,0.133
						c-0.115,0.059-0.242,0.086-0.195,0.159c0.045,0.07,0.26,0.122,0.353,0.183c0.105,0.069,0.06,0.077,0.337,0.132
						c0.25,0.05,0.398,0.076,0.781,0.067c0.372-0.009,1.446-0.052,1.275-0.174L175.138,329.452z"/>
					<path id="XMLID_1199_" style="fill-rule:evenodd;clip-rule:evenodd;fill:#EFFA52;" d="M188.283,342.386
						c-0.075-0.277-0.327-0.547-0.755-0.81c-0.199,0.082-0.53,0.084-0.841,0.134c-0.299,0.048-0.283,0.07-0.407,0.133
						c-0.115,0.059-0.243,0.086-0.195,0.159c0.045,0.07,0.26,0.122,0.353,0.183c0.105,0.069,0.061,0.076,0.337,0.132
						c0.25,0.05,0.398,0.076,0.781,0.067c0.372-0.009,1.446-0.052,1.275-0.173L188.283,342.386z"/>
					<path id="XMLID_1187_" style="fill-rule:evenodd;clip-rule:evenodd;fill:#EFFA52;" d="M225.172,341.063
						c-1.997-0.077-3.974-0.171-5.931-0.281c0.296,0.003,0.377-0.13,0.589-0.18c0.219-0.052,0.401-0.108,0.639-0.157
						c0.449-0.091,0.873-0.18,1.368-0.262c1.279-0.21,2.709-0.032,3.932,0.088c1.201,0.118,2.324,0.347,2.148,0.625
						c-0.08,0.127-0.753,0.194-1.284,0.243c-0.304,0.028-0.576,0.062-0.909,0.068c-0.403,0.008-0.694,0.033-1.101,0.03
						L225.172,341.063z"/>
					<path id="XMLID_1178_" style="fill-rule:evenodd;clip-rule:evenodd;fill:#EFFA52;" d="M184.641,329.891
						c-1.997-0.077-3.974-0.171-5.931-0.281c0.296,0.003,0.377-0.13,0.589-0.18c0.219-0.052,0.401-0.108,0.639-0.157
						c0.449-0.091,0.872-0.18,1.368-0.261c1.279-0.21,2.709-0.032,3.932,0.088c1.202,0.118,2.324,0.347,2.148,0.625
						c-0.08,0.127-0.753,0.194-1.284,0.243c-0.304,0.029-0.576,0.062-0.909,0.068c-0.403,0.008-0.694,0.033-1.101,0.03
						L184.641,329.891z"/>
					<path id="XMLID_1176_" style="fill-rule:evenodd;clip-rule:evenodd;fill:#EFFA52;" d="M233.173,332.237
						c-1.997-0.077-3.974-0.171-5.931-0.281c0.296,0.003,0.377-0.13,0.589-0.18c0.219-0.052,0.401-0.108,0.639-0.157
						c0.449-0.091,0.873-0.18,1.368-0.261c1.279-0.21,2.709-0.032,3.931,0.088c1.201,0.118,2.324,0.347,2.148,0.625
						c-0.08,0.127-0.753,0.194-1.284,0.243c-0.304,0.028-0.576,0.062-0.909,0.068c-0.403,0.008-0.694,0.033-1.101,0.03
						L233.173,332.237z"/>
					<path id="XMLID_1175_" style="fill-rule:evenodd;clip-rule:evenodd;fill:#EFFA52;" d="M258.9,341.776
						c0.947,0.289,0.86,0.824-0.355,1.084c-0.97,0.207-2.061,0.117-2.938-0.043c-0.09-0.006-0.187-0.01-0.272-0.018
						c-0.258-0.026-0.513-0.067-0.651-0.119c-0.199-0.032-0.373-0.067-0.495-0.107c-0.527-0.172-0.342-0.335,0.072-0.509
						c0.388-0.163,1.148-0.399,2.063-0.472C257.34,341.51,258.331,341.603,258.9,341.776z"/>
					<path id="XMLID_1174_" style="fill-rule:evenodd;clip-rule:evenodd;fill:#EFFA52;" d="M191.475,343.033
						c-0.296,0.024-0.6,0.033-0.914,0.027c-0.206-0.065-0.552-0.093-0.573-0.184c-0.018-0.08,0.352-0.203,0.757-0.233
						c0.471-0.035,0.836,0.061,1.076,0.128c0.313,0.086,0.566,0.157,0.156,0.257c-0.396,0.097-0.809,0.109-1.416,0.108
						L191.475,343.033z"/>
					<path id="XMLID_1173_" style="fill-rule:evenodd;clip-rule:evenodd;fill:#EFFA52;" d="M205.908,342.371
						c-0.296,0.024-0.6,0.033-0.914,0.027c-0.206-0.065-0.552-0.093-0.573-0.184c-0.019-0.08,0.352-0.203,0.757-0.233
						c0.471-0.035,0.836,0.062,1.076,0.128c0.313,0.087,0.566,0.157,0.156,0.257c-0.396,0.097-0.809,0.109-1.416,0.108
						L205.908,342.371z"/>
					<path id="XMLID_1165_" style="fill-rule:evenodd;clip-rule:evenodd;fill:#EFFA52;" d="M254.33,340.12
						c0.288,0.034,0.569,0.07,0.846,0.107c0.544,0.073,1.107,0.149,1.58,0.239c0.223,0.043,0.428,0.094,0.569,0.15
						c0.076,0.017,0.115,0.041,0.119,0.063c0.048,0.034,0.076,0.068,0.058,0.103c-0.06,0.118-0.476,0.21-1.04,0.249
						c-0.337,0.023-0.68,0.016-0.987-0.01c-0.001,0-0.002,0-0.003,0.001c-0.229,0.025-0.523,0.008-0.66-0.037
						c-0.007-0.002-0.012-0.005-0.019-0.007c-0.241,0.004-0.486,0.001-0.73-0.018c-0.587-0.048-0.986-0.135-1.217-0.249
						c-0.229-0.113-0.255-0.241-0.254-0.361c0.001-0.107,0.159-0.234,0.74-0.27C253.681,340.058,254.027,340.085,254.33,340.12z"/>
					<path id="XMLID_1163_" style="fill-rule:evenodd;clip-rule:evenodd;fill:#EFFA52;" d="M218.345,340.444
						c0.287,0.034,0.569,0.07,0.845,0.107c0.544,0.073,1.106,0.149,1.58,0.239c0.223,0.042,0.428,0.094,0.569,0.149
						c0.076,0.017,0.114,0.041,0.119,0.063c0.048,0.034,0.076,0.068,0.058,0.103c-0.06,0.118-0.476,0.21-1.04,0.249
						c-0.338,0.023-0.68,0.016-0.987-0.01c-0.001,0-0.002,0-0.003,0.001c-0.229,0.025-0.523,0.007-0.66-0.037
						c-0.007-0.002-0.012-0.005-0.019-0.007c-0.241,0.004-0.486,0.001-0.73-0.018c-0.587-0.047-0.986-0.135-1.217-0.249
						c-0.229-0.113-0.255-0.241-0.254-0.361c0.001-0.107,0.159-0.234,0.74-0.27C217.695,340.382,218.041,340.409,218.345,340.444z"
						/>
					<path id="XMLID_1124_" style="fill-rule:evenodd;clip-rule:evenodd;fill:#EFFA52;" d="M251.031,338.416
						c0.806,0.06,1.642,0.184,1.795,0.359c0.044,0.051,0.004,0.102-0.089,0.148c0.136,0.044,0.107,0.104-0.152,0.128
						c-0.174,0.238-0.988,0.444-2.239,0.514c-1.671,0.093-3.15-0.094-4.118-0.354c-0.472-0.127-0.904-0.282-0.84-0.441
						c0.059-0.15,0.558-0.267,1.241-0.327c0.641-0.057,1.351-0.073,2.052-0.081C249.458,338.354,250.288,338.361,251.031,338.416z"
						/>
					<path id="XMLID_1123_" style="fill-rule:evenodd;clip-rule:evenodd;fill:#EFFA52;" d="M190.623,334.906
						c0.806,0.06,1.642,0.184,1.795,0.359c0.044,0.051,0.004,0.102-0.089,0.148c0.136,0.044,0.107,0.104-0.152,0.128
						c-0.174,0.238-0.988,0.444-2.239,0.514c-1.671,0.094-3.15-0.094-4.118-0.354c-0.472-0.126-0.904-0.281-0.84-0.441
						c0.059-0.15,0.558-0.267,1.241-0.327c0.641-0.057,1.35-0.073,2.052-0.081C189.05,334.844,189.88,334.851,190.623,334.906z"/>
					<path id="XMLID_1122_" style="fill-rule:evenodd;clip-rule:evenodd;fill:#EFFA52;" d="M210.539,337.197
						c0.806,0.06,1.642,0.184,1.794,0.359c0.044,0.051,0.004,0.102-0.089,0.148c0.136,0.044,0.107,0.104-0.152,0.128
						c-0.174,0.238-0.988,0.444-2.239,0.514c-1.671,0.093-3.15-0.094-4.118-0.354c-0.472-0.127-0.904-0.281-0.84-0.441
						c0.059-0.15,0.558-0.267,1.241-0.327c0.642-0.057,1.351-0.073,2.052-0.081C208.966,337.135,209.796,337.142,210.539,337.197z"
						/>
					<path id="XMLID_1121_" style="fill-rule:evenodd;clip-rule:evenodd;fill:#EFFA52;" d="M172.891,330.818
						c0.806,0.06,1.642,0.184,1.795,0.359c0.044,0.051,0.004,0.102-0.089,0.148c0.136,0.044,0.107,0.104-0.152,0.128
						c-0.174,0.238-0.988,0.444-2.239,0.514c-1.671,0.094-3.15-0.094-4.118-0.354c-0.472-0.126-0.904-0.281-0.84-0.441
						c0.059-0.15,0.558-0.267,1.241-0.327c0.642-0.057,1.351-0.073,2.052-0.081C171.318,330.756,172.147,330.763,172.891,330.818z"
						/>
					<path id="XMLID_1120_" style="fill-rule:evenodd;clip-rule:evenodd;fill:#EFFA52;" d="M172.847,340.737
						c0.806,0.06,1.642,0.184,1.795,0.359c0.044,0.051,0.004,0.102-0.089,0.148c0.136,0.044,0.107,0.104-0.152,0.128
						c-0.174,0.238-0.988,0.444-2.239,0.514c-1.671,0.094-3.15-0.094-4.118-0.354c-0.472-0.126-0.904-0.281-0.84-0.441
						c0.059-0.15,0.558-0.267,1.241-0.327c0.641-0.056,1.351-0.073,2.052-0.081C171.275,340.675,172.104,340.682,172.847,340.737z"
						/>
					<path id="XMLID_1119_" style="fill-rule:evenodd;clip-rule:evenodd;fill:#EFFA52;" d="M194.596,334.661
						c0.033,0.005,0.065,0.01,0.098,0.015c0.047,0.009,0.08,0.019,0.099,0.031c0.042,0.02,0.054,0.041,0.024,0.061
						c-0.01,0.007-0.016,0.014-0.023,0.022c-0.008,0.017-0.006,0.034,0.001,0.052c0.015,0.016,0.037,0.032,0.066,0.047
						c0.041,0.017,0.086,0.034,0.143,0.049c0.074,0.018,0.125,0.038,0.125,0.062c0,0.023-0.053,0.05-0.142,0.066
						c-0.088,0.015-0.208,0.024-0.329,0.025c-0.191,0.029-0.473,0.03-0.652-0.007c-0.345-0.07-0.69-0.141-1.035-0.211
						c-0.156-0.032-0.174-0.077-0.075-0.114c0.152-0.057,0.431-0.095,0.738-0.115c0.135-0.009,0.288-0.012,0.431-0.011
						C194.259,334.635,194.421,334.645,194.596,334.661z"/>
					<path id="XMLID_1118_" style="fill-rule:evenodd;clip-rule:evenodd;fill:#EFFA52;" d="M214.092,342.288
						c0.033,0.005,0.065,0.01,0.098,0.015c0.047,0.009,0.08,0.019,0.099,0.031c0.042,0.02,0.054,0.041,0.024,0.061
						c-0.01,0.007-0.016,0.014-0.023,0.022c-0.008,0.017-0.006,0.034,0.001,0.052c0.015,0.016,0.037,0.032,0.066,0.048
						c0.041,0.017,0.086,0.034,0.143,0.049c0.074,0.018,0.125,0.038,0.124,0.062c0,0.023-0.053,0.05-0.141,0.066
						c-0.088,0.015-0.209,0.024-0.33,0.025c-0.192,0.029-0.473,0.03-0.653-0.007c-0.345-0.07-0.69-0.141-1.035-0.211
						c-0.157-0.032-0.175-0.077-0.075-0.114c0.152-0.057,0.431-0.095,0.738-0.115c0.135-0.009,0.287-0.012,0.43-0.011
						C213.755,342.262,213.917,342.272,214.092,342.288z"/>
					<path id="XMLID_1117_" style="fill-rule:evenodd;clip-rule:evenodd;fill:#EFFA52;" d="M82.182,335.755
						c-1.997-0.077-3.974-0.171-5.931-0.281c0.296,0.003,0.377-0.13,0.589-0.18c0.218-0.052,0.401-0.108,0.639-0.157
						c0.449-0.092,0.873-0.18,1.368-0.261c1.279-0.21,2.709-0.032,3.931,0.088c1.201,0.118,2.324,0.347,2.148,0.625
						c-0.08,0.127-0.753,0.194-1.284,0.243c-0.304,0.028-0.576,0.062-0.909,0.068c-0.403,0.008-0.694,0.033-1.101,0.03
						L82.182,335.755z"/>
					<path id="XMLID_1116_" style="fill-rule:evenodd;clip-rule:evenodd;fill:#EFFA52;" d="M62.918,337.063
						c-0.296,0.024-0.6,0.033-0.914,0.027c-0.206-0.065-0.552-0.093-0.573-0.184c-0.019-0.08,0.352-0.203,0.757-0.233
						c0.471-0.035,0.836,0.061,1.076,0.128c0.313,0.086,0.566,0.157,0.156,0.257c-0.396,0.097-0.809,0.109-1.416,0.108
						L62.918,337.063z"/>
					<path id="XMLID_1115_" style="fill-rule:evenodd;clip-rule:evenodd;fill:#EFFA52;" d="M75.355,335.137
						c0.288,0.034,0.569,0.07,0.846,0.107c0.544,0.073,1.106,0.149,1.58,0.239c0.223,0.043,0.429,0.094,0.57,0.15
						c0.076,0.017,0.114,0.041,0.118,0.062c0.048,0.034,0.076,0.068,0.058,0.103c-0.06,0.118-0.476,0.21-1.04,0.249
						c-0.337,0.023-0.68,0.017-0.987-0.009c-0.001,0-0.002,0-0.003,0c-0.229,0.025-0.523,0.007-0.66-0.037
						c-0.007-0.002-0.012-0.005-0.019-0.007c-0.241,0.004-0.486,0.001-0.73-0.018c-0.587-0.048-0.986-0.134-1.217-0.249
						c-0.229-0.113-0.255-0.241-0.254-0.361c0-0.107,0.158-0.234,0.74-0.27C74.706,335.074,75.051,335.101,75.355,335.137z"/>
					<path id="XMLID_1114_" style="fill-rule:evenodd;clip-rule:evenodd;fill:#EFFA52;" d="M67.549,331.89
						c0.806,0.06,1.642,0.184,1.794,0.359c0.044,0.051,0.004,0.102-0.089,0.148c0.136,0.044,0.107,0.104-0.151,0.128
						c-0.174,0.238-0.988,0.444-2.239,0.514c-1.671,0.094-3.15-0.094-4.118-0.354c-0.472-0.126-0.904-0.281-0.841-0.441
						c0.059-0.15,0.558-0.266,1.241-0.327c0.642-0.057,1.351-0.073,2.052-0.081C65.976,331.827,66.806,331.835,67.549,331.89z"/>
					<path id="XMLID_1113_" style="fill-rule:evenodd;clip-rule:evenodd;fill:#EFFA52;" d="M71.103,336.981
						c0.032,0.005,0.065,0.01,0.098,0.015c0.047,0.009,0.08,0.019,0.099,0.031c0.042,0.02,0.054,0.041,0.024,0.062
						c-0.01,0.007-0.016,0.014-0.023,0.021c-0.008,0.017-0.006,0.035,0.001,0.052c0.015,0.016,0.037,0.032,0.066,0.047
						c0.041,0.017,0.086,0.034,0.143,0.049c0.074,0.018,0.125,0.038,0.125,0.062c0,0.023-0.053,0.05-0.142,0.066
						c-0.088,0.015-0.208,0.024-0.329,0.025c-0.192,0.029-0.473,0.03-0.653-0.007c-0.345-0.07-0.69-0.141-1.035-0.211
						c-0.157-0.032-0.174-0.077-0.075-0.114c0.152-0.057,0.431-0.095,0.738-0.115c0.135-0.009,0.288-0.012,0.431-0.011
						C70.766,336.955,70.928,336.965,71.103,336.981z"/>
					<path id="XMLID_1081_" style="fill-rule:evenodd;clip-rule:evenodd;fill:#EFFA52;" d="M249.435,341.127
						c0.323,0.097,0.324,0.23,0.013,0.326c-0.091,0.028-0.243,0.046-0.416,0.045c-0.001,0-0.001,0-0.001,0
						c-0.02,0.006-0.036,0.013-0.065,0.018c-0.196,0.034-0.487,0.034-0.682-0.003c-0.177-0.034-0.354-0.068-0.532-0.101
						c-0.124-0.024-0.169-0.061-0.124-0.092c0.023-0.016,0.064-0.029,0.124-0.041c0.06-0.011,0.131-0.019,0.213-0.023
						c0.026-0.002,0.058-0.001,0.085-0.003c0.021-0.015,0.054-0.029,0.112-0.041c0.172-0.035,0.343-0.071,0.515-0.107
						c0.103-0.021,0.259-0.029,0.405-0.024C249.237,341.085,249.35,341.101,249.435,341.127z"/>
				</g>
			</g>
			<g id="XMLID_166_" style="opacity:0.2;">
				<polygon id="XMLID_176_" style="fill:#203D03;" points="182.114,312.236 174.909,312.236 142.656,321.972 149.861,321.972 				
					"/>
				<polygon id="XMLID_174_" style="fill:#203D03;" points="100.286,312.236 93.683,312.236 61.43,321.972 68.033,321.972 				"/>
				<path id="XMLID_170_" style="fill-rule:evenodd;clip-rule:evenodd;fill:#0B424F;" d="M196.309,318.352
					c-14.277,3.938-67.744,13.398-85.486,13.512c-13.006,0.076-11.23-8.206,6.039-12.816
					C137.46,313.527,213.341,313.629,196.309,318.352z"/>
				<path id="XMLID_167_" style="fill-rule:evenodd;clip-rule:evenodd;fill:#0B424F;" d="M107.547,317.315
					c-10.194,2.799-48.145,9.523-60.69,9.599c-9.276,0.063-8.053-5.825,4.308-9.092C65.86,313.896,119.74,313.96,107.547,317.315z"
					/>
			</g>
			<g id="XMLID_148_">
				<rect id="XMLID_126_" x="174.909" y="194.499" style="fill:#A58052;" width="7.204" height="118.132"/>
				<rect id="XMLID_131_" x="93.683" y="194.499" style="fill:#A58052;" width="6.603" height="118.132"/>
				<polygon id="XMLID_157_" style="fill:#7A542B;" points="100.286,288.171 93.683,293.823 93.683,270.675 100.286,270.675 				"/>
				<polygon id="XMLID_156_" style="fill:#7A542B;" points="182.113,289.754 174.913,295.919 174.913,270.675 182.113,270.675 				
					"/>
				
					<linearGradient id="XMLID_00000100374596228865098560000004088962305996938163_" gradientUnits="userSpaceOnUse" x1="160.8133" y1="276.6892" x2="212.3965" y2="84.1781">
					<stop  offset="0.0267" style="stop-color:#79C3A3"/>
					<stop  offset="0.1998" style="stop-color:#7DC4A3"/>
					<stop  offset="0.3885" style="stop-color:#8BC9A5"/>
					<stop  offset="0.5845" style="stop-color:#A0D0A7"/>
					<stop  offset="0.7855" style="stop-color:#BFDAA9"/>
					<stop  offset="0.9886" style="stop-color:#E6E7AD"/>
					<stop  offset="1" style="stop-color:#E8E8AD"/>
				</linearGradient>
				<path id="XMLID_190_" style="fill:url(#XMLID_00000100374596228865098560000004088962305996938163_);" d="M216.567,238.421
					c0.499,20.601-9.032,33.953-21.538,39.496c-22.308,9.893-54.116-5.03-55.596-47.953
					c-1.435-40.236,11.448-103.549,23.546-135.554c4.697-12.491,9.289-20.208,12.868-19.952
					C193.217,75.832,215.343,190.633,216.567,238.421z"/>
				
					<linearGradient id="XMLID_00000148648771854183796060000001357984004135521958_" gradientUnits="userSpaceOnUse" x1="84.7941" y1="278.0977" x2="121.4168" y2="141.4196">
					<stop  offset="0.0267" style="stop-color:#79C3A3"/>
					<stop  offset="0.1998" style="stop-color:#7DC4A3"/>
					<stop  offset="0.3885" style="stop-color:#8BC9A5"/>
					<stop  offset="0.5845" style="stop-color:#A0D0A7"/>
					<stop  offset="0.7855" style="stop-color:#BFDAA9"/>
					<stop  offset="0.9886" style="stop-color:#E6E7AD"/>
					<stop  offset="1" style="stop-color:#E8E8AD"/>
				</linearGradient>
				<path id="XMLID_187_" style="fill:url(#XMLID_00000148648771854183796060000001357984004135521958_);" d="M124.375,251.002
					c0.423,16.251-7.929,26.144-18.245,29.12c-15.511,4.501-35.448-6.646-36.46-35.267c-1.012-25.933,6.464-65.474,14.288-89.503
					c4.154-12.717,8.382-21.099,11.524-20.828C107.777,135.445,123.454,217.034,124.375,251.002z"/>
			</g>
		</g>
		<g>
			
				<linearGradient id="XMLID_00000140012811129539126950000000682762108338149546_" gradientUnits="userSpaceOnUse" x1="375.004" y1="448.211" x2="375.004" y2="335.2643">
				<stop  offset="0.0482" style="stop-color:#203648"/>
				<stop  offset="0.4034" style="stop-color:#294450"/>
				<stop  offset="0.9946" style="stop-color:#3D6461"/>
			</linearGradient>
			<path id="XMLID_228_" style="fill:url(#XMLID_00000140012811129539126950000000682762108338149546_);" d="M749.864,362.301
				c0,0.05,0.05,0.09,0.14,0.13v85.78h-750v-98.71c0.1,0.2,0.22,0.32,0.36,0.32c0.8,0,0.8-0.41,1.61-0.41
				c0.81,0,0.81,2.36,1.61,2.36c0.81,0,0.81-2.38,1.62-2.38c0.8,0,0.8-2.53,1.61-2.53c0.8,0,0.8,4.74,1.61,4.74
				c0.81,0,0.81-0.08,1.61-0.08c0.81,0,0.81-3.67,1.62-3.67c0.8,0,0.8,1.05,1.61,1.05c0.8,0,0.8,5.02,1.61,5.02
				c0.81,0,0.81-4.94,1.61-4.94c0.81,0,0.81,0.72,1.62,0.72c0.8,0,0.8,2.55,1.61,2.55s0.81-0.65,1.61-0.65
				c0.81,0,0.81-5.31,1.62-5.31c0.8,0,0.8,2.33,1.61,2.33c0.81,0,0.81,2.8,1.61,2.8c0.81,0,0.81,2.76,1.62,2.76
				c0.8,0,0.8-1.5,1.61-1.5s0.81-2.4,1.61-2.4c0.81,0,0.81-0.23,1.62-0.23c0.8,0,0.8-1.64,1.61-1.64c0.81,0,0.81-1.53,1.61-1.53
				c0.81,0,0.81-2.74,1.62-2.74c0.8,0,0.8,5.03,1.61,5.03c0.8,0,0.8,4.45,1.61,4.45c0.81,0,0.81-4.23,1.61-4.23
				c0.81,0,0.81-1.79,1.62-1.79c0.8,0,0.8,5.39,1.61,5.39c0.8,0,0.8-1.75,1.61-1.75c0.81,0,0.81-0.3,1.61-0.3
				c0.81,0,0.81,2.18,1.62,2.18c0.8,0,0.8,0.96,1.61,0.96c0.8,0,0.8-1.33,1.61-1.33s0.81-5.23,1.61-5.23c0.81,0,0.81-0.58,1.61-0.58
				c0.81,0,0.81,1.4,1.61,1.4c0.81,0,0.81-2.05,1.61-2.05c0.81,0,0.81,6.77,1.61,6.77c0.81,0,0.81-8.57,1.61-8.57
				c0.81,0,0.81,7.69,1.61,7.69c0.81,0,0.81-7.29,1.61-7.29c0.8,0,0.8,4.33,1.61,4.33c0.8,0,0.8,2.09,1.61,2.09
				c0.8,0,0.8-3.91,1.61-3.91c0.8,0,0.8,1.5,1.61,1.5c0.8,0,0.8-4.31,1.6-4.31c0.81,0,0.81,5.72,1.61,5.72
				c0.81,0,0.81-5.65,1.61-5.65c0.8,0,0.8,7.59,1.61,7.59c0.8,0,0.8-5.27,1.61-5.27c0.8,0,0.8,2.09,1.6,2.09
				c0.81,0,0.81-3.73,1.61-3.73c0.81,0,0.81,5.32,1.61,5.32s0.8-2.21,1.61-2.21c0.8,0,0.8,0.4,1.61,0.4c0.8,0,0.8,2.38,1.6,2.38
				c0.81,0,0.81-4.99,1.61-4.99s0.8-1.47,1.61-1.47c0.8,0,0.8,7.46,1.61,7.46c0.8,0,0.8-4.92,1.6-4.92c0.81,0,0.81,0.88,1.61,0.88
				c0.8,0,0.8,5.84,1.61,5.84c0.8,0,0.8,0.15,1.61,0.15c0.8,0,0.8-9.53,1.6-9.53c0.81,0,0.81,9.01,1.61,9.01
				c0.8,0,0.8-1.57,1.61-1.57c0.8,0,0.8-1.82,1.6-1.82c0.81,0,0.81-3.79,1.61-3.79c0.81,0,0.81,3.52,1.61,3.52
				c0.8,0,0.8-0.56,1.61-0.56c0.8,0,0.8-0.89,1.6-0.89c0.81,0,0.81-3.51,1.61-3.51c0.8,0,0.8,8.69,1.61,8.69
				c0.8,0,0.8-3.17,1.61-3.17c0.8,0,0.8-4.73,1.6-4.73c0.81,0,0.81,1.72,1.61,1.72c0.8,0,0.8,3.19,1.61,3.19
				c0.8,0,0.8-3.43,1.61-3.43c0.8,0,0.8,1.33,1.6,1.33c0.81,0,0.81,3.12,1.61,3.12c0.8,0,0.8-1.32,1.61-1.32
				c0.8,0,0.8-2.76,1.61-2.76c0.8,0,0.8-0.15,1.6-0.15c0.81,0,0.81,5.02,1.61,5.02c0.81,0,0.81-6.77,1.61-6.77
				c0.8,0,0.8,6.3,1.61,6.3c0.8,0,1.54-5.53,1.61-6.33c1.75-22.09,1.24-4,1.6,6.28c0.03,0.79,0.81-1.91,1.61-1.91
				c0.81,0,0.81,1.16,1.61,1.16c0.8,0,0.8-0.19,1.61-0.19c0.8,0,0.8-0.45,1.61-0.45c0.8,0,0.8-6.12,1.61-6.12
				c0.8,0,0.8,7.48,1.61,7.48c0.8,0,0.8-3.38,1.6-3.38c0.81,0,0.81,5.52,1.61,5.52c0.81,0,0.81-6.07,1.61-6.07
				c0.81,0,0.81-0.18,1.61-0.18c0.81,0,0.81,2.43,1.61,2.43c0.81,0,0.81,2.89,1.61,2.89c0.81,0,0.81-2.07,1.61-2.07
				c0.81,0,0.81-4.89,1.61-4.89c0.81,0,0.81,5.96,1.61,5.96c0.81,0,0.81-0.33,1.61-0.33c0.81,0,0.81-6.79,1.61-6.79
				c0.81,0,0.81,2.23,1.61,2.23c0.81,0,0.81-0.46,1.62-0.46c0.8,0,0.8,3.06,1.61,3.06c0.8,0,0.8-5.79,1.61-5.79
				c0.8,0,0.8,0.58,1.61,0.58s0.81,2.06,1.61,2.06c0.81,0,0.81-2.01,1.61-2.01c0.81,0,0.81,7.55,1.62,7.55c0.8,0,0.8-4.24,1.61-4.24
				c0.81,0,0.81,0.06,1.61,0.06c0.81,0,0.81,3.5,1.62,3.5c0.8,0,0.8-3.62,1.61-3.62c0.81,0,0.81,2.84,1.61,2.84
				c0.81,0,0.81-4.49,1.62-4.49c0.8,0,0.8,5.42,1.61,5.42c0.81,0,0.81,1.38,1.62,1.38c0.8,0,0.8-4.99,1.61-4.99
				c0.81,0,0.81,5.54,1.62,5.54c0.8,0,0.8,0.5,1.61,0.5c0.81,0,0.81-6.33,1.61-6.33c0.81,0,0.81,0.69,1.62,0.69
				c0.8,0,0.8,5.18,1.61,5.18c0.81,0,0.81-7.76,1.61-7.76c0.81,0,0.81,1.16,1.62,1.16c0.8,0,0.8,2.34,1.61,2.34
				c0.81,0,0.81,1.23,1.61,1.23c0.81,0,0.81-3.05,1.61-3.05c0.81,0,0.81,0.51,1.62,0.51c0.8,0,0.8-3.32,1.61-3.32
				c0.8,0,0.8-0.09,1.61-0.09s0.81,3.96,1.61,3.96c0.81,0,0.81,2.12,1.61,2.12c0.81,0,0.81-5.63,1.61-5.63
				c0.81,0,0.81,4.27,1.62,4.27c0.8,0,0.8,0.65,1.61,0.65c0.8,0,0.8-3.19,1.61-3.19c0.8,0,0.8,7.03,1.61,7.03
				c0.8,0,0.8-9.03,1.61-9.03c0.8,0,0.8,6.28,1.61,6.28s0.81-5.75,1.61-5.75c0.81,0,0.81,7.33,1.61,7.33c0.81,0,0.81-7.57,1.61-7.57
				c0.81,0,0.81,6.85,1.61,6.85c0.81,0,0.81-1.64,1.61-1.64c0.81,0,0.81,3.97,1.61,3.97c0.81,0,0.81-5.53,1.61-5.53
				c0.81,0,0.81,5.38,1.61,5.38c0.81,0,0.81-6.17,1.61-6.17c0.81,0,0.81-1.28,1.61-1.28c0.81,0,0.81,4.31,1.61,4.31
				c0.81,0,0.81-3.49,1.61-3.49c0.81,0,0.81-2.82,1.61-2.82c0.81,0,0.81,8.82,1.61,8.82c0.81,0,0.81-0.89,1.61-0.89
				c0.81,0,0.81-3.21,1.61-3.21c0.81,0,0.81-3.35,1.61-3.35c0.8,0,0.8,5.44,1.61,5.44c0.8,0,0.8-4.69,1.61-4.69
				c0.8,0,0.8,2.01,1.61,2.01c0.8,0,0.8,0.72,1.61,0.72c0.8,0,0.8,3.13,1.61,3.13s0.81,1.34,1.61,1.34c0.81,0,0.81-7.78,1.61-7.78
				c0.81,0,0.81-0.95,1.61-0.95c0.81,0,0.81,5.55,1.61,5.55c0.81,0,0.81,0.11,1.61,0.11c0.81,0,0.81,1.54,1.61,1.54
				c0.81,0,0.81-7.02,1.61-7.02c0.81,0,0.81,0.94,1.61,0.94c0.81,0,0.81,4.35,1.62,4.35c0.8,0,0.8-0.53,1.61-0.53
				c0.8,0,0.8,3.3,1.61,3.3c0.8,0,0.8-6.91,1.61-6.91s0.81-0.88,1.61-0.88c0.81,0,0.81,5.56,1.61,5.56c0.81,0,0.81-5.53,1.62-5.53
				c0.8,0,0.8,1.54,1.61,1.54c0.8,0,0.8,1.2,1.61,1.2c0.81,0,0.81-2.57,1.61-2.57c0.81,0,0.81,7.29,1.62,7.29
				c0.8,0,0.8-4.14,1.61-4.14s0.81-2.17,1.61-2.17c0.81,0,0.81,3.06,1.62,3.06c0.8,0,0.8,2.62,1.61,2.62s0.81-0.62,1.62-0.62
				c0.8,0,0.8-5.43,1.61-5.43c0.81,0,0.81-0.9,1.62-0.9c0.8,0,0.8-0.47,1.61-0.47c0.81,0,0.81,4.74,1.62,4.74
				c0.8,0,0.8-2.89,1.61-2.89c0.81,0,0.81,6.58,1.62,6.58c0.8,0,0.8-0.3,1.61-0.3s0.81-0.82,1.62-0.82c0.8,0,0.8,0.77,1.61,0.77
				s0.81-4.68,1.61-4.68c0.81,0,0.81,0.93,1.62,0.93c0.8,0,0.8,1.77,1.61,1.77c0.81,0,0.81-0.17,1.61-0.17
				c0.81,0,0.81-1.52,1.62-1.52c0.8,0,0.8-2.83,1.61-2.83c0.81,0,0.81,5.01,1.61,5.01c0.81,0,0.81-3.32,1.62-3.32
				c0.8,0,0.8-2.9,1.61-2.9s0.81,7.74,1.61,7.74c0.81,0,0.81-6.54,1.61-6.54c0.81,0,0.81,2.04,1.62,2.04c0.8,0,0.8-3.43,1.61-3.43
				c0.8,0,0.8,2.12,1.61,2.12c0.81,0,0.81,4.26,1.61,4.26c0.81,0,0.81-3.52,1.61-3.52c0.81,0,0.81,0.15,1.61,0.15
				c0.81,0,0.81,2.13,1.62,2.13c0.8,0,0.8-2.71,1.61-2.71c0.8,0,0.8-0.51,1.61-0.51s0.81,0.56,1.61,0.56c0.81,0,0.81-0.88,1.61-0.88
				c0.81,0,0.81-1.7,1.61-1.7c0.81,0,0.81,9.05,1.62,9.05c0.8,0,0.8-4.03,1.61-4.03c0.8,0,0.8-0.88,1.61-0.88
				c0.81,0,0.81,2.3,1.61,2.3c0.81,0,0.81-0.44,1.61-0.44c0.81,0,0.81-4.7,1.62-4.7c0.8,0,0.8-0.11,1.61-0.11
				c0.8,0,0.8,7.2,1.61,7.2c0.81,0,0.81,0.4,1.61,0.4c0.81,0,0.81-1.29,1.62-1.29c0.8,0,0.8-5.24,1.61-5.24
				c0.8,0,0.8-2.86,1.61-2.86c0.81,0,0.81,7.11,1.61,7.11c0.81,0,0.81,1.07,1.62,1.07c0.8,0,0.8-6.01,1.61-6.01s0.81,6.88,1.62,6.88
				c0.8,0,0.8-3.56,1.61-3.56s0.81-5.98,1.61-5.98c0.81,0,0.81,2.73,1.62,2.73c0.81,0,0.81,3.34,1.61,3.34c0.81,0,0.81-5.2,1.62-5.2
				c0.81,0,0.81,4.15,1.61,4.15c0.81,0,0.81-1.6,1.62-1.6c0.81,0,0.81,6.6,1.62,6.6c0.8,0,0.8-6.46,1.61-6.46
				c0.81,0,0.81-2.99,1.62-2.99c0.81,0,0.81,2.42,1.61,2.42c0.81,0,0.81-0.45,1.62-0.45s0.81,3.22,1.61,3.22
				c0.81,0,0.81-3.31,1.62-3.31c0.8,0,0.8-2.09,1.61-2.09s0.81,6.85,1.62,6.85c0.8,0,0.8-1.04,1.61-1.04c0.81,0,0.81,1.07,1.61,1.07
				c0.81,0,0.81-3.6,1.62-3.6c0.8,0,0.8-3.69,1.61-3.69c0.81,0,0.81,7.31,1.61,7.31c0.81,0,0.81,0.84,1.62,0.84
				c0.8,0,0.8-5.33,1.61-5.33s0.81,4.09,1.61,4.09c0.81,0,0.81-6.66,1.62-6.66c0.8,0,0.8,4.71,1.61,4.71c0.8,0,0.8,0.05,1.61,0.05
				c0.81,0,0.81,1.86,1.61,1.86c0.81,0,0.81-4.28,1.62-4.28c0.8,0,0.8,4.66,1.61,4.66c0.81,0,0.81,0.49,1.61,0.49
				c0.81,0,0.81,0.67,1.62,0.67c0.8,0,0.8-8.11,1.61-8.11c0.81,0,0.81,1.97,1.61,1.97c0.81,0,0.81,5.46,1.62,5.46
				c0.8,0,0.8-6.97,1.61-6.97c0.81,0,0.81,3.46,1.61,3.46c0.81,0,0.81-3.34,1.62-3.34c0.81,0,0.81,3.31,1.61,3.31
				c0.81,0,0.81-0.89,1.62-0.89c0.8,0,0.8-3.46,1.61-3.46c0.81,0,0.81,9.17,1.62,9.17c0.81,0,0.81-8.08,1.61-8.08
				c0.81,0,0.81,5.7,1.62,5.7c0.81,0,0.81-6.14,1.62-6.14c0.8,0,0.8,5.62,1.61,5.62c0.81,0,0.81,1.11,1.62,1.11s0.81,1.62,1.61,1.62
				c0.81,0,0.81-5.26,1.62-5.26c0.81,0,0.81,3.43,1.62,3.43c0.8,0,0.8-6.36,1.61-6.36c0.81,0,0.81,1.84,1.62,1.84
				c0.8,0,0.8,5.52,1.61,5.52c0.81,0,0.81,0.04,1.61,0.04c0.81,0,0.81-0.56,1.62-0.56c0.81,0,0.81-5.92,1.61-5.92
				c0.81,0,0.81,5.15,1.62,5.15c0.8,0,0.8,1.38,1.61,1.38s0.81-3.99,1.62-3.99c0.8,0,0.8,1.45,1.61,1.45s0.81,3.09,1.61,3.09
				c0.81,0,0.81,0.71,1.62,0.71c0.8,0,0.8-6.56,1.61-6.56c0.81,0,0.81-2.59,1.61-2.59c0.81,0,0.81,3.73,1.62,3.73
				c0.81,0,0.81-2.38,1.61-2.38c0.81,0,0.81,3.3,1.62,3.3c0.81,0,0.81,1.61,1.61,1.61c0.81,0,0.81,3.41,1.62,3.41
				s0.81-9.41,1.61-9.41c0.81,0,0.81,6.94,1.62,6.94s0.81-0.38,1.61-0.38c0.81,0,0.81,0.52,1.62,0.52c0.81,0,0.81,1.95,1.62,1.95
				c0.8,0,0.8-2.74,1.61-2.74c0.81,0,0.81-5.87,1.62-5.87c0.81,0,0.81-0.91,1.62-0.91c0.8,0,0.8,6.46,1.61,6.46
				c0.81,0,0.81,1.73,1.62,1.73c0.81,0,0.81-3.12,1.61-3.12c0.81,0,0.81-3.02,1.62-3.02c0.81,0,0.81-1.45,1.61-1.45
				c0.81,0,0.81,4.82,1.62,4.82c0.81,0,0.81-1.11,1.61-1.11c0.81,0,0.81,1.42,1.62,1.42c0.81,0,0.81-2.99,1.61-2.99
				c0.81,0,0.81-0.22,1.62-0.22c0.8,0,0.8-1.8,1.61-1.8c0.81,0,0.81,0.4,1.62,0.4c0.8,0,0.8,4,1.61,4c0.81,0,0.81,4.74,1.62,4.74
				c0.8,0,0.8-1.69,1.61-1.69c0.81,0,0.81-4.77,1.62-4.77c0.81,0,0.81-2.45,1.61-2.45c0.81,0,0.81,2.91,1.62,2.91
				c0.81,0,0.81,4.17,1.62,4.17c0.8,0,0.8,2.03,1.61,2.03s0.81-4.69,1.62-4.69c0.81,0,0.81-4.72,1.62-4.72c0.8,0,0.8,1.93,1.61,1.93
				s0.81,2.58,1.62,2.58c0.81,0,0.81-1.56,1.61-1.56c0.81,0,0.81,0.71,1.62,0.71c0.81,0,0.81,1.28,1.62,1.28
				c0.8,0,0.8,1.86,1.61,1.86c0.81,0,0.81-0.91,1.62-0.91c0.8,0,0.8-5.57,1.61-5.57c0.81,0,0.81,1.66,1.62,1.66
				c0.81,0,0.81,6.32,1.61,6.32c0.81,0,0.81-4.79,1.62-4.79s0.81,4.51,1.61,4.51c0.81,0,0.81-7.41,1.62-7.41s0.81,7.54,1.62,7.54
				c0.8,0,0.8-1.18,1.61-1.18c0.81,0,0.81-6.73,1.62-6.73c0.81,0,0.81,5.12,1.62,5.12c0.8,0,0.8,3.54,1.61,3.54
				c0.81,0,0.81-8.05,1.62-8.05c0.81,0,0.81,3.34,1.61,3.34c0.81,0,0.81,2.49,1.62,2.49c0.81,0,0.81-3.14,1.61-3.14
				c0.81,0,0.81,3.21,1.62,3.21c0.8,0,0.8-2.33,1.61-2.33s0.81,1.34,1.61,1.34c0.81,0,0.81,1.78,1.61,1.78
				c0.81,0,0.81-0.39,1.62-0.39c0.8,0,0.8-2.11,1.61-2.11c0.8,0,0.8,3.43,1.61,3.43c0.8,0,0.8-0.32,1.61-0.32
				c0.81,0,0.81-4.91,1.61-4.91c0.81,0,0.81,2.52,1.61,2.52c0.81,0,0.81-5.88,1.61-5.88c0.81,0,0.81-0.27,1.62-0.27
				c0.8,0,0.8,8.13,1.61,8.13c0.8,0,0.8-1.9,1.61-1.9s0.81,3.72,1.61,3.72c0.81,0,0.81-1.79,1.62-1.79c0.8,0,0.8-0.33,1.61-0.33
				c0.81,0,0.81-8.11,1.62-8.11c0.8,0,0.8,9.25,1.61,9.25c0.81,0,0.81-6.08,1.62-6.08c0.81,0,0.81,5.52,1.62,5.52
				c0.8,0,0.8-5.34,1.61-5.34c0.81,0,0.81,5.61,1.62,5.61c0.81,0,0.81-1.55,1.62-1.55s0.81,2.34,1.61,2.34
				c0.81,0,0.81-3.68,1.62-3.68s0.81,3.12,1.61,3.12c0.81,0,0.81,0.94,1.62,0.94c0.81,0,0.81-8.4,1.61-8.4
				c0.81,0,0.81-1.76,1.62-1.76c0.8,0,0.8,9.84,1.61,9.84c0.81,0,0.81-7.17,1.62-7.17c0.8,0,0.8,6.55,1.61,6.55
				c0.81,0,0.81-0.51,1.61-0.51c0.81,0,0.81-5.23,1.62-5.23c0.81,0,0.81,1.71,1.61,1.71c0.81,0,0.81-2.97,1.62-2.97
				s0.81,0.64,1.62,0.64c0.81,0,0.81,4.87,1.61,4.87c0.81,0,0.81,0.54,1.62,0.54s0.81-6.89,1.62-6.89c0.81,0,0.81,5.86,1.62,5.86
				c0.81,0,0.81-4.78,1.62-4.78c0.8,0,0.8,5.35,1.61,5.35c0.81,0,0.81-6.77,1.62-6.77c0.81,0,0.81,3.49,1.61,3.49
				c0.81,0,0.81,2.71,1.62,2.71c0.81,0,0.81-1.1,1.62-1.1c0.8,0,0.8-1.12,1.61-1.12s0.81-0.62,1.62-0.62c0.81,0,0.81,4.37,1.62,4.37
				c0.81,0,0.81-6.53,1.61-6.53c0.81,0,0.81,4.8,1.62,4.8c0.81,0,0.81,0.31,1.62,0.31s0.81-3.07,1.62-3.07
				c0.81,0,0.81,5.33,1.62,5.33c0.81,0,0.81-7.07,1.62-7.07c0.8,0,0.8,0.69,1.61,0.69c0.81,0,0.81,2.79,1.62,2.79
				c0.81,0,0.81-5.66,1.62-5.66c0.81,0,0.81,9.13,1.61,9.13c0.81,0,0.81-5.24,1.62-5.24c0.81,0,0.81-1.55,1.62-1.55
				c0.81,0,0.81-1.69,1.62-1.69c0.81,0,0.81,7.24,1.62,7.24c0.81,0,0.81-5.38,1.62-5.38c0.81,0,0.81,0.48,1.62,0.48
				c0.81,0,0.81,6.48,1.62,6.48c0.8,0,0.8-3.14,1.61-3.14s0.81,3.54,1.62,3.54c0.81,0,0.81-6.47,1.62-6.47s0.81-0.68,1.62-0.68
				c0.81,0,0.81,2.41,1.62,2.41s0.81-2.14,1.62-2.14c0.81,0,0.81-2.46,1.62-2.46c0.81,0,0.81,0.05,1.62,0.05s0.81,6.55,1.62,6.55
				c0.81,0,0.81,1.81,1.62,1.81s0.81,0.49,1.62,0.49c0.81,0,0.81-6.18,1.62-6.18c0.81,0,0.81-1.63,1.62-1.63
				c0.81,0,0.81,7.17,1.62,7.17c0.8,0,0.8-8.6,1.61-8.6c0.81,0,0.81,6.66,1.62,6.66c0.81,0,0.81-1.84,1.61-1.84
				c0.81,0,0.81-1.14,1.62-1.14c0.81,0,0.81-3.59,1.62-3.59c0.81,0,0.81,2.81,1.62,2.81c0.81,0,0.81,2.46,1.62,2.46
				c0.81,0,0.81-5.65,1.62-5.65s0.81-0.3,1.62-0.3c0.81,0,0.81,6.59,1.62,6.59s0.81,1.89,1.62,1.89c0.81,0,0.81-5.96,1.62-5.96
				s0.81,4.97,1.62,4.97c0.81,0,0.81-6.57,1.62-6.57c0.81,0,0.81,5,1.62,5s0.81-0.03,1.62-0.03c0.82,0,0.82-5.1,1.63-5.1
				s0.81,8.08,1.62,8.08c0.81,0,0.81-8.18,1.62-8.18s0.81,0.25,1.62,0.25c0.81,0,0.81,2.51,1.62,2.51c0.81,0,0.81,2.45,1.62,2.45
				c0.81,0,0.81,0.98,1.63,0.98c0.53,0,0.71-2.91,1-4.94v16.14C749.914,362.241,749.864,362.271,749.864,362.301z"/>
			
				<linearGradient id="XMLID_00000106107976325195339250000006211096231532859795_" gradientUnits="userSpaceOnUse" x1="375.002" y1="500" x2="375.002" y2="412.027">
				<stop  offset="0.0482" style="stop-color:#203648"/>
				<stop  offset="0.4034" style="stop-color:#294450"/>
				<stop  offset="0.9946" style="stop-color:#3D6461"/>
			</linearGradient>
			<path id="XMLID_163_" style="fill:url(#XMLID_00000106107976325195339250000006211096231532859795_);" d="M749.294,421.841
				c-0.81,0-0.81-0.25-1.63-0.25s-0.82,8.17-1.63,8.17c-0.82,0-0.82-8.07-1.64-8.07c-0.82,0-0.82,5.09-1.64,5.09
				c-0.82,0-0.82,0.04-1.63,0.04c-0.82,0-0.82-5.01-1.64-5.01c-0.82,0-0.82,6.58-1.64,6.58c-0.81,0-0.81-4.98-1.63-4.98
				c-0.82,0-0.82,5.97-1.64,5.97c-0.81,0-0.81-1.9-1.63-1.9c-0.82,0-0.82-6.59-1.64-6.59c-0.81,0-0.81,0.31-1.63,0.31
				s-0.82,5.64-1.63,5.64c-0.82,0-0.82-2.46-1.63-2.46c-0.82,0-0.82-2.81-1.64-2.81c-0.82,0-0.82,3.6-1.63,3.6
				c-0.82,0-0.82,1.13-1.64,1.13c-0.81,0-0.81,1.85-1.63,1.85c-0.81,0-0.81-6.67-1.63-6.67c-0.81,0-0.81,8.61-1.63,8.61
				c-0.81,0-0.81-7.17-1.63-7.17c-0.82,0-0.82,1.62-1.63,1.62c-0.82,0-0.82,6.19-1.64,6.19c-0.81,0-0.81-0.49-1.63-0.49
				c-0.82,0-0.82-1.81-1.63-1.81c-0.82,0-0.82-6.56-1.64-6.56c-0.81,0-0.81-0.04-1.63-0.04s-0.82,2.45-1.63,2.45
				c-0.82,0-0.82,2.15-1.64,2.15c-0.81,0-0.81-2.42-1.63-2.42c-0.82,0-0.82,0.68-1.63,0.68c-0.82,0-0.82,6.47-1.64,6.47
				c-0.82,0-0.82-3.53-1.63-3.53c-0.82,0-0.82,3.14-1.64,3.14c-0.81,0-0.81-6.48-1.63-6.48c-0.81,0-0.81-0.49-1.63-0.49
				c-0.82,0-0.82,5.39-1.63,5.39c-0.82,0-0.82-7.25-1.63-7.25c-0.82,0-0.82,1.69-1.64,1.69c-0.82,0-0.82,1.56-1.63,1.56
				c-0.82,0-0.82,5.23-1.64,5.23c-0.81,0-0.81-9.12-1.63-9.12c-0.81,0-0.81,5.65-1.63,5.65c-0.82,0-0.82-2.78-1.63-2.78
				c-0.82,0-0.82-0.69-1.63-0.69c-0.82,0-0.82,7.07-1.63,7.07c-0.82,0-0.82-5.34-1.64-5.34c-0.81,0-0.81,3.07-1.63,3.07
				c-0.81,0-0.81-0.3-1.63-0.3c-0.82,0-0.82-4.8-1.63-4.8c-0.82,0-0.82,6.53-1.64,6.53c-0.81,0-0.81-4.38-1.63-4.38
				c-0.81,0-0.81,0.62-1.63,0.62c-0.82,0-0.82,1.13-1.63,1.13c-0.82,0-0.82,1.1-1.63,1.1c-0.82,0-0.82-2.72-1.63-2.72
				c-0.81,0-0.81-3.49-1.63-3.49c-0.82,0-0.82,6.77-1.63,6.77c-0.82,0-0.82-5.35-1.63-5.35c-0.82,0-0.82,4.78-1.63,4.78
				c-0.82,0-0.82-5.86-1.63-5.86c-0.82,0-0.82,6.89-1.64,6.89c-0.81,0-0.81-0.54-1.63-0.54s-0.82-4.86-1.63-4.86
				c-0.82,0-0.82-0.64-1.63-0.64c-0.82,0-0.82,2.96-1.63,2.96c-0.82,0-0.82-1.7-1.63-1.7c-0.82,0-0.82,5.22-1.63,5.22
				c-0.82,0-0.82,0.52-1.63,0.52c-0.81,0-0.81-6.56-1.63-6.56c-0.81,0-0.81,7.17-1.63,7.17c-0.81,0-0.81-9.83-1.63-9.83
				c-0.81,0-0.81,1.75-1.62,1.75c-0.82,0-0.82,8.41-1.63,8.41c-0.82,0-0.82-0.94-1.63-0.94c-0.82,0-0.82-3.12-1.63-3.12
				c-0.81,0-0.81,3.67-1.63,3.67c-0.81,0-0.81-2.34-1.63-2.34c-0.82,0-0.82,1.55-1.63,1.55c-0.82,0-0.82-5.61-1.63-5.61
				c-0.82,0-0.82,5.34-1.64,5.34c-0.81,0-0.81-5.51-1.63-5.51c-0.81,0-0.81,6.07-1.63,6.07c-0.81,0-0.81-9.25-1.63-9.25
				c-0.81,0-0.81,8.11-1.63,8.11c-0.81,0-0.81,0.33-1.63,0.33c-0.81,0-0.81,1.8-1.62,1.8c-0.82,0-0.82-3.73-1.63-3.73
				s-0.81,1.91-1.63,1.91c-0.81,0-0.81-8.13-1.62-8.13c-0.82,0-0.82,0.27-1.63,0.27c-0.81,0-0.81,5.87-1.62,5.87
				c-0.82,0-0.82-2.52-1.63-2.52c-0.81,0-0.81,4.92-1.63,4.92c-0.81,0-0.81,0.31-1.62,0.31c-0.81,0-0.81-3.42-1.63-3.42
				c-0.81,0-0.81,2.11-1.62,2.11c-0.82,0-0.82,0.38-1.63,0.38s-0.81-1.77-1.63-1.77c-0.81,0-0.81-1.35-1.62-1.35
				c-0.82,0-0.82,2.34-1.63,2.34c-0.81,0-0.81-3.22-1.63-3.22c-0.81,0-0.81,3.15-1.62,3.15c-0.82,0-0.82-2.5-1.63-2.5
				c-0.82,0-0.82-3.33-1.63-3.33c-0.82,0-0.82,8.04-1.63,8.04c-0.82,0-0.82-3.54-1.63-3.54c-0.82,0-0.82-5.11-1.64-5.11
				c-0.81,0-0.81,6.73-1.63,6.73c-0.81,0-0.81,1.18-1.63,1.18c-0.81,0-0.81-7.54-1.63-7.54c-0.81,0-0.81,7.4-1.63,7.4
				c-0.81,0-0.81-4.5-1.63-4.5c-0.81,0-0.81,4.79-1.63,4.79c-0.81,0-0.81-6.33-1.63-6.33c-0.81,0-0.81-1.65-1.63-1.65
				c-0.81,0-0.81,5.56-1.63,5.56c-0.81,0-0.81,0.91-1.63,0.91c-0.81,0-0.81-1.86-1.63-1.86c-0.81,0-0.81-1.27-1.63-1.27
				c-0.81,0-0.81-0.71-1.63-0.71c-0.81,0-0.81,1.55-1.63,1.55c-0.81,0-0.81-2.58-1.63-2.58c-0.81,0-0.81-1.93-1.63-1.93
				c-0.81,0-0.81,4.72-1.63,4.72c-0.81,0-0.81,4.69-1.63,4.69c-0.81,0-0.81-2.02-1.63-2.02s-0.82-4.17-1.63-4.17
				c-0.82,0-0.82-2.91-1.63-2.91c-0.82,0-0.82,2.44-1.63,2.44c-0.82,0-0.82,4.77-1.63,4.77c-0.82,0-0.82,1.69-1.63,1.69
				c-0.81,0-0.81-4.73-1.63-4.73c-0.81,0-0.81-4-1.63-4c-0.81,0-0.81-0.4-1.63-0.4c-0.81,0-0.81,1.79-1.63,1.79
				c-0.81,0-0.81,0.22-1.63,0.22c-0.81,0-0.81,2.99-1.62,2.99c-0.82,0-0.82-1.42-1.63-1.42c-0.82,0-0.82,1.12-1.63,1.12
				c-0.82,0-0.82-4.82-1.63-4.82c-0.82,0-0.82,1.44-1.63,1.44c-0.82,0-0.82,3.03-1.63,3.03c-0.82,0-0.82,3.11-1.63,3.11
				c-0.82,0-0.82-1.73-1.63-1.73c-0.82,0-0.82-6.46-1.63-6.46c-0.82,0-0.82,0.92-1.63,0.92c-0.82,0-0.82,5.87-1.63,5.87
				c-0.82,0-0.82,2.73-1.63,2.73c-0.82,0-0.82-1.95-1.63-1.95c-0.82,0-0.82-0.52-1.63-0.52c-0.82,0-0.82,0.38-1.63,0.38
				c-0.82,0-0.82-6.94-1.63-6.94c-0.82,0-0.82,9.42-1.63,9.42c-0.82,0-0.82-3.42-1.63-3.42c-0.82,0-0.82-1.61-1.63-1.61
				c-0.82,0-0.82-3.3-1.63-3.3s-0.81,2.38-1.63,2.38c-0.81,0-0.81-3.73-1.63-3.73c-0.81,0-0.81,2.6-1.62,2.6
				c-0.82,0-0.82,6.56-1.63,6.56c-0.82,0-0.82-0.72-1.63-0.72c-0.82,0-0.82-3.09-1.63-3.09c-0.81,0-0.81-1.45-1.63-1.45
				c-0.81,0-0.81,3.99-1.63,3.99c-0.81,0-0.81-1.37-1.62-1.37c-0.82,0-0.82-5.16-1.63-5.16c-0.82,0-0.82,5.93-1.63,5.93
				c-0.82,0-0.82,0.56-1.63,0.56c-0.81,0-0.81-0.04-1.63-0.04c-0.81,0-0.81-5.52-1.63-5.52c-0.81,0-0.81-1.84-1.63-1.84
				c-0.81,0-0.81,6.36-1.63,6.36c-0.81,0-0.81-3.43-1.63-3.43c-0.81,0-0.81,5.26-1.63,5.26c-0.81,0-0.81-1.63-1.63-1.63
				c-0.81,0-0.81-1.11-1.63-1.11c-0.81,0-0.81-5.62-1.63-5.62c-0.81,0-0.81,6.15-1.63,6.15c-0.81,0-0.81-5.71-1.63-5.71
				c-0.81,0-0.81,8.08-1.63,8.08c-0.81,0-0.81-9.17-1.63-9.17c-0.81,0-0.81,3.47-1.63,3.47c-0.81,0-0.81,0.89-1.62,0.89
				c-0.82,0-0.82-3.31-1.63-3.31c-0.82,0-0.82,3.33-1.63,3.33c-0.82,0-0.82-3.45-1.63-3.45c-0.81,0-0.81,6.97-1.63,6.97
				c-0.81,0-0.81-5.46-1.63-5.46c-0.81,0-0.81-1.98-1.62-1.98c-0.82,0-0.82,8.12-1.63,8.12c-0.81,0-0.81-0.68-1.63-0.68
				c-0.81,0-0.81-0.48-1.63-0.48c-0.81,0-0.81-4.66-1.62-4.66c-0.82,0-0.82,4.28-1.63,4.28c-0.81,0-0.81-1.86-1.63-1.86
				c-0.81,0-0.81-0.05-1.62-0.05c-0.82,0-0.82-4.72-1.63-4.72c-0.82,0-0.82,6.67-1.63,6.67c-0.81,0-0.81-4.1-1.63-4.1
				c-0.81,0-0.81,5.34-1.62,5.34c-0.82,0-0.82-0.84-1.63-0.84c-0.81,0-0.81-7.32-1.63-7.32c-0.81,0-0.81,3.69-1.63,3.69
				c-0.81,0-0.81,3.61-1.62,3.61c-0.82,0-0.82-1.07-1.63-1.07c-0.82,0-0.82,1.04-1.63,1.04c-0.81,0-0.81-6.85-1.63-6.85
				c-0.81,0-0.81,2.08-1.63,2.08c-0.81,0-0.81,3.32-1.62,3.32c-0.82,0-0.82-3.23-1.63-3.23c-0.82,0-0.82,0.45-1.63,0.45
				c-0.82,0-0.82-2.42-1.63-2.42c-0.82,0-0.82,2.99-1.63,2.99c-0.82,0-0.82,6.47-1.63,6.47c-0.82,0-0.82-6.6-1.63-6.6
				c-0.82,0-0.82,1.59-1.63,1.59c-0.82,0-0.82-4.14-1.63-4.14c-0.82,0-0.82,5.2-1.63,5.2c-0.82,0-0.82-3.35-1.63-3.35
				c-0.82,0-0.82-2.72-1.63-2.72c-0.81,0-0.81,5.98-1.63,5.98c-0.81,0-0.81,3.56-1.63,3.56c-0.81,0-0.81-6.88-1.63-6.88
				c-0.81,0-0.81,6-1.62,6c-0.82,0-0.82-1.06-1.63-1.06c-0.81,0-0.81-7.11-1.63-7.11c-0.81,0-0.81,2.86-1.63,2.86
				c-0.81,0-0.81,5.23-1.62,5.23c-0.82,0-0.82,1.29-1.63,1.29c-0.81,0-0.81-0.4-1.63-0.4c-0.81,0-0.81-7.19-1.62-7.19
				c-0.82,0-0.82,0.1-1.63,0.1s-0.81,4.7-1.63,4.7c-0.81,0-0.81,0.44-1.62,0.44s-0.81-2.3-1.63-2.3c-0.81,0-0.81,0.88-1.62,0.88
				c-0.82,0-0.82,4.04-1.63,4.04c-0.81,0-0.81-9.05-1.63-9.05c-0.81,0-0.81,1.7-1.62,1.7c-0.81,0-0.81,0.87-1.63,0.87
				c-0.81,0-0.81-0.56-1.62-0.56c-0.82,0-0.82,0.51-1.63,0.51c-0.81,0-0.81,2.71-1.62,2.71c-0.82,0-0.82-2.13-1.63-2.13
				c-0.81,0-0.81-0.15-1.63-0.15c-0.81,0-0.81,3.53-1.62,3.53c-0.82,0-0.82-4.26-1.63-4.26c-0.81,0-0.81-2.12-1.62-2.12
				c-0.82,0-0.82,3.43-1.63,3.43c-0.81,0-0.81-2.05-1.63-2.05c-0.81,0-0.81,6.55-1.62,6.55c-0.82,0-0.82-7.75-1.63-7.75
				c-0.81,0-0.81,2.9-1.63,2.9c-0.81,0-0.81,3.33-1.62,3.33c-0.82,0-0.82-5.01-1.63-5.01c-0.81,0-0.81,2.82-1.63,2.82
				c-0.81,0-0.81,1.53-1.63,1.53c-0.81,0-0.81,0.16-1.62,0.16c-0.82,0-0.82-1.76-1.63-1.76c-0.81,0-0.81-0.94-1.63-0.94
				c-0.81,0-0.81,4.69-1.63,4.69c-0.81,0-0.81-0.78-1.63-0.78c-0.81,0-0.81,0.82-1.62,0.82c-0.82,0-0.82,0.31-1.63,0.31
				c-0.82,0-0.82-6.59-1.63-6.59c-0.82,0-0.82,2.9-1.63,2.9c-0.82,0-0.82-4.74-1.63-4.74c-0.82,0-0.82,0.47-1.63,0.47
				c-0.82,0-0.82,0.9-1.63,0.9c-0.81,0-0.81,5.42-1.63,5.42c-0.81,0-0.81,0.62-1.63,0.62c-0.81,0-0.81-2.62-1.63-2.62
				c-0.81,0-0.81-3.05-1.62-3.05c-0.82,0-0.82,2.17-1.63,2.17c-0.82,0-0.82,4.13-1.63,4.13c-0.81,0-0.81-7.28-1.63-7.28
				c-0.81,0-0.81,2.57-1.62,2.57c-0.82,0-0.82-1.21-1.63-1.21s-0.81-1.53-1.63-1.53c-0.81,0-0.81,5.52-1.62,5.52
				c-0.82,0-0.82-5.55-1.63-5.55c-0.81,0-0.81,0.88-1.63,0.88c-0.81,0-0.81,6.91-1.62,6.91c-0.81,0-0.81-3.3-1.63-3.3
				c-0.81,0-0.81,0.52-1.62,0.52c-0.82,0-0.82-4.35-1.63-4.35c-0.81,0-0.81-0.93-1.62-0.93c-0.82,0-0.82,7.02-1.63,7.02
				c-0.81,0-0.81-1.55-1.62-1.55c-0.82,0-0.82-0.11-1.63-0.11c-0.81,0-0.81-5.54-1.62-5.54c-0.82,0-0.82,0.94-1.63,0.94
				c-0.81,0-0.81,7.79-1.62,7.79c-0.81,0-0.81-1.35-1.63-1.35c-0.81,0-0.81-3.13-1.62-3.13c-0.81,0-0.81-0.71-1.63-0.71
				c-0.81,0-0.81-2.02-1.62-2.02c-0.81,0-0.81,4.7-1.62,4.7c-0.82,0-0.82-5.45-1.63-5.45c-0.81,0-0.81,3.36-1.62,3.36
				s-0.81,3.2-1.63,3.2c-0.81,0-0.81,0.9-1.62,0.9s-0.81-8.83-1.62-8.83c-0.82,0-0.82,2.82-1.63,2.82s-0.81,3.5-1.62,3.5
				c-0.81,0-0.81-4.32-1.63-4.32c-0.81,0-0.81,1.28-1.62,1.28c-0.81,0-0.81,6.17-1.62,6.17c-0.82,0-0.82-5.37-1.63-5.37
				c-0.81,0-0.81,5.52-1.62,5.52s-0.81-3.97-1.63-3.97c-0.81,0-0.81,1.65-1.62,1.65s-0.81-6.86-1.63-6.86
				c-0.81,0-0.81,7.58-1.62,7.58s-0.81-7.33-1.62-7.33c-0.82,0-0.82,5.74-1.63,5.74s-0.81-6.28-1.62-6.28
				c-0.82,0-0.82,9.03-1.63,9.03s-0.81-7.02-1.62-7.02c-0.82,0-0.82,3.19-1.63,3.19s-0.81-0.66-1.62-0.66
				c-0.82,0-0.82-4.26-1.63-4.26s-0.81,5.62-1.62,5.62c-0.82,0-0.82-2.11-1.63-2.11s-0.81-3.96-1.63-3.96
				c-0.81,0-0.81,0.08-1.62,0.08c-0.82,0-0.82,3.32-1.63,3.32c-0.81,0-0.81-0.51-1.63-0.51c-0.81,0-0.81,3.05-1.62,3.05
				c-0.82,0-0.82-1.23-1.63-1.23s-0.81-2.33-1.63-2.33c-0.81,0-0.81-1.17-1.62-1.17c-0.82,0-0.82,7.76-1.63,7.76
				c-0.81,0-0.81-5.17-1.63-5.17c-0.81,0-0.81-0.69-1.63-0.69c-0.81,0-0.81,6.32-1.62,6.32c-0.82,0-0.82-0.49-1.63-0.49
				c-0.82,0-0.82-5.55-1.63-5.55c-0.82,0-0.82,4.99-1.63,4.99c-0.81,0-0.81-1.37-1.63-1.37c-0.81,0-0.81-5.42-1.63-5.42
				c-0.81,0-0.81,4.49-1.63,4.49c-0.81,0-0.81-2.85-1.62-2.85c-0.82,0-0.82,3.63-1.63,3.63c-0.81,0-0.81-3.5-1.63-3.5
				c-0.81,0-0.81-0.06-1.63-0.06c-0.81,0-0.81,4.23-1.62,4.23c-0.82,0-0.82-7.55-1.63-7.55c-0.81,0-0.81,2.02-1.63,2.02
				c-0.81,0-0.81-2.06-1.62-2.06c-0.82,0-0.82-0.59-1.63-0.59c-0.81,0-0.81,5.79-1.62,5.79c-0.82,0-0.82-3.05-1.63-3.05
				c-0.81,0-0.81,0.45-1.62,0.45c-0.82,0-0.82-2.23-1.63-2.23c-0.81,0-0.81,6.8-1.62,6.8c-0.82,0-0.82,0.33-1.63,0.33
				c-0.81,0-0.81-5.96-1.62-5.96c-0.82,0-0.82,4.88-1.63,4.88c-0.81,0-0.81,2.07-1.62,2.07c-0.81,0-0.81-2.88-1.63-2.88
				c-0.81,0-0.81-2.44-1.62-2.44c-0.81,0-0.81,0.18-1.62,0.18c-0.82,0-0.82,6.08-1.63,6.08c-0.81,0-0.81-5.52-1.62-5.52
				c-0.81,0-0.81,3.37-1.62,3.37c-0.82,0-0.82-7.48-1.63-7.48c-0.81,0-0.81,6.12-1.62,6.12c-0.81,0-0.81,0.45-1.62,0.45
				c-0.81,0-0.81,0.2-1.63,0.2c-0.81,0-0.81-1.17-1.62-1.17c-0.81,0-1.59,2.71-1.62,1.91c-0.37-10.28,0.14-28.37-1.62-6.27
				c-0.07,0.79-0.81,6.32-1.63,6.32c-0.81,0-0.81-6.29-1.62-6.29s-0.81,6.77-1.62,6.77c-0.81,0-0.81-5.03-1.62-5.03
				s-0.81,0.15-1.62,0.15c-0.81,0-0.81,2.77-1.63,2.77c-0.81,0-0.81,1.31-1.62,1.31c-0.81,0-0.81-3.12-1.62-3.12
				c-0.81,0-0.81-1.32-1.62-1.32c-0.81,0-0.81,3.42-1.62,3.42c-0.81,0-0.81-3.19-1.62-3.19c-0.81,0-0.81-1.72-1.63-1.72
				c-0.81,0-0.81,4.73-1.62,4.73c-0.81,0-0.81,3.17-1.62,3.17c-0.81,0-0.81-8.69-1.62-8.69c-0.81,0-0.81,3.51-1.62,3.51
				c-0.81,0-0.81,0.9-1.62,0.9s-0.81,0.55-1.62,0.55c-0.82,0-0.82-3.51-1.63-3.51s-0.81,3.78-1.62,3.78c-0.81,0-0.81,1.82-1.62,1.82
				c-0.81,0-0.81,1.57-1.62,1.57c-0.81,0-0.81-9-1.62-9c-0.81,0-0.81,9.52-1.62,9.52c-0.81,0-0.81-0.15-1.62-0.15
				c-0.82,0-0.82-5.84-1.63-5.84c-0.81,0-0.81-0.87-1.62-0.87c-0.81,0-0.81,4.91-1.62,4.91c-0.81,0-0.81-7.45-1.62-7.45
				c-0.81,0-0.81,1.46-1.62,1.46c-0.81,0-0.81,4.99-1.62,4.99c-0.82,0-0.82-2.37-1.63-2.37c-0.81,0-0.81-0.41-1.62-0.41
				c-0.81,0-0.81,2.21-1.62,2.21c-0.81,0-0.81-5.31-1.62-5.31c-0.81,0-0.81,3.72-1.62,3.72c-0.82,0-0.82-2.09-1.63-2.09
				c-0.81,0-0.81,5.28-1.62,5.28c-0.81,0-0.81-7.6-1.62-7.6s-0.81,5.66-1.62,5.66c-0.81,0-0.81-5.73-1.63-5.73
				c-0.81,0-0.81,4.32-1.62,4.32c-0.81,0-0.81-1.5-1.62-1.5c-0.81,0-0.81,3.9-1.62,3.9c-0.82,0-0.82-2.08-1.63-2.08
				c-0.81,0-0.81-4.33-1.62-4.33c-0.81,0-0.81,7.28-1.62,7.28c-0.82,0-0.82-7.68-1.63-7.68c-0.81,0-0.81,8.57-1.62,8.57
				s-0.81-6.78-1.62-6.78c-0.82,0-0.82,2.06-1.63,2.06s-0.81-1.41-1.62-1.41c-0.81,0-0.81,0.58-1.63,0.58
				c-0.81,0-0.81,5.23-1.62,5.23c-0.82,0-0.82,1.33-1.63,1.33s-0.81-0.95-1.63-0.95c-0.81,0-0.81-2.19-1.62-2.19
				c-0.82,0-0.82,0.31-1.63,0.31c-0.81,0-0.81,1.74-1.63,1.74c-0.81,0-0.81-5.38-1.62-5.38c-0.82,0-0.82,1.78-1.63,1.78
				c-0.81,0-0.81,4.24-1.63,4.24c-0.81,0-0.81-4.46-1.62-4.46c-0.82,0-0.82-5.03-1.63-5.03c-0.81,0-0.81,2.74-1.63,2.74
				c-0.81,0-0.81,1.53-1.63,1.53c-0.81,0-0.81,1.64-1.62,1.64c-0.82,0-0.82,0.23-1.63,0.23c-0.81,0-0.81,2.4-1.63,2.4
				c-0.81,0-0.81,1.51-1.62,1.51c-0.82,0-0.82-2.77-1.63-2.77c-0.82,0-0.82-2.79-1.63-2.79c-0.81,0-0.81-2.33-1.63-2.33
				c-0.81,0-0.81,5.31-1.63,5.31c-0.81,0-0.81,0.64-1.62,0.64c-0.82,0-0.82-2.55-1.63-2.55s-0.81-0.71-1.63-0.71
				c-0.81,0-0.81,4.93-1.62,4.93c-0.82,0-0.82-5.01-1.63-5.01c-0.82,0-0.82-1.06-1.63-1.06c-0.81,0-0.81,3.68-1.63,3.68
				c-0.81,0-0.81,0.08-1.62,0.08c-0.82,0-0.82-4.75-1.63-4.75c-0.81,0-0.81,2.54-1.63,2.54c-0.81,0-0.81,2.37-1.62,2.37
				c-0.82,0-0.82-2.35-1.63-2.35c-0.26,0-0.44,0.04-0.59,0.11v19.02H0V500h750.004v-50.679v-4.01v-22.53
				C749.834,422.271,749.634,421.841,749.294,421.841z"/>
		</g>
	</g>
</g>
</svg>
